<svg width="27" height="39" viewBox="0 0 27 39" fill="none" xmlns="http://www.w3.org/2000/svg">
<path d="M4.72489 3.74874C9.56545 1.17981 13.451 0.181872 16.3816 0.754923C19.2935 1.29264 21.3869 2.76281 22.662 5.16542C24.2746 8.20402 24.2799 11.3711 22.6779 14.6667C22.0824 15.9337 21.2373 17.2425 20.1428 18.5932L19.4917 19.4143C19.3006 19.6515 19.4471 20.5248 19.9311 22.034C20.4316 23.4891 20.8413 24.517 21.1601 25.1177C21.0771 25.3881 20.6773 25.872 19.9606 26.5694C19.2605 27.2126 18.6277 27.6843 18.0624 27.9843C17.5324 28.2656 17.1074 28.4459 16.7872 28.5252C16.061 28.0955 15.1354 26.8207 14.0103 24.7007C12.8852 22.5808 12.2516 21.1736 12.1095 20.4792C16.9795 16.1738 18.5707 12.4312 16.8831 9.25126C15.4205 6.49532 12.1452 6.46745 7.05734 9.16764C5.25539 10.124 4.04184 10.9944 3.4167 11.779C3.01719 11.5382 2.51742 10.8525 1.91738 9.72184C1.31733 8.5912 0.970045 7.55284 0.87551 6.60676C1.60447 5.67648 2.8876 4.72381 4.72489 3.74874ZM21.358 38.8017C20.3116 38.4513 19.5259 37.7814 19.0009 36.7921C18.4758 35.8028 18.3709 34.7944 18.6859 33.7668C19.0175 32.6851 19.678 31.8817 20.6673 31.3567C21.6566 30.8317 22.6744 30.7443 23.7208 31.0947C24.7837 31.391 25.5777 32.0338 26.1027 33.0231C26.6278 34.0124 26.7245 35.0479 26.3928 36.1296C26.0778 37.1572 25.4256 37.9335 24.4363 38.4585C23.447 38.9836 22.4209 39.0979 21.358 38.8017Z" fill="white"/>
</svg>
