<svg width="15" height="15" viewBox="0 0 15 15" fill="none" xmlns="http://www.w3.org/2000/svg">
<path d="M11.6241 1.75816C13.2634 3.21331 14.1805 4.53011 14.3753 5.70856C14.5807 6.87504 14.3223 7.86512 13.6 8.6788C12.6866 9.70787 11.5003 10.1525 10.0413 10.0127C9.48317 9.96653 8.87452 9.83275 8.21532 9.61131L7.81662 9.48203C7.70099 9.44358 7.39418 9.62051 6.89617 10.0128C6.42076 10.4038 6.09277 10.701 5.9122 10.9044C5.79927 10.9111 5.56203 10.8289 5.2005 10.6578C4.86155 10.4853 4.59635 10.3141 4.4049 10.1441C4.22541 9.98478 4.09842 9.85067 4.02394 9.74176C4.0835 9.40954 4.43193 8.88445 5.06922 8.1665C5.70652 7.44855 6.14536 7.01441 6.38576 6.8641C8.67999 8.0876 10.3051 8.16088 11.261 7.08395C12.0895 6.15061 11.6422 4.91919 9.9191 3.38969C9.30884 2.84799 8.81299 2.51482 8.43156 2.39019C8.46598 2.2068 8.65314 1.92365 8.99303 1.54074C9.33292 1.15783 9.67355 0.88255 10.0149 0.714895C10.4654 0.858085 11.0018 1.20584 11.6241 1.75816ZM0.811261 12.8911C0.79634 12.45 0.937581 12.0619 1.23498 11.7268C1.53239 11.3918 1.89567 11.2115 2.32483 11.1859C2.77658 11.1591 3.16998 11.2943 3.50502 11.5917C3.84007 11.8891 4.01505 12.2584 4.02997 12.6995C4.06748 13.1393 3.93753 13.5267 3.64013 13.8618C3.34273 14.1968 2.96815 14.3778 2.5164 14.4046C2.08724 14.4302 1.70514 14.2943 1.37009 13.9969C1.03505 13.6995 0.84877 13.3309 0.811261 12.8911Z" fill="#ED1C24"/>
</svg>
