<svg width="27" height="39" viewBox="0 0 27 39" fill="none" xmlns="http://www.w3.org/2000/svg">
<path d="M4.72489 3.7488C9.56545 1.17987 13.451 0.181933 16.3816 0.754984C19.2935 1.2927 21.3869 2.76287 22.662 5.16548C24.2746 8.20408 24.2799 11.3712 22.6779 14.6667C22.0824 15.9337 21.2373 17.2426 20.1428 18.5933L19.4917 19.4143C19.3006 19.6516 19.4471 20.5248 19.9311 22.0341C20.4316 23.4892 20.8413 24.5171 21.1601 25.1177C21.0771 25.3882 20.6773 25.8721 19.9606 26.5694C19.2605 27.2127 18.6277 27.6843 18.0624 27.9844C17.5324 28.2656 17.1074 28.4459 16.7872 28.5253C16.061 28.0956 15.1354 26.8207 14.0103 24.7008C12.8852 22.5808 12.2516 21.1736 12.1095 20.4792C16.9795 16.1739 18.5707 12.4313 16.8831 9.25132C15.4205 6.49538 12.1452 6.46751 7.05734 9.1677C5.25539 10.124 4.04184 10.9945 3.4167 11.7791C3.01719 11.5383 2.51742 10.8525 1.91738 9.7219C1.31733 8.59126 0.970045 7.5529 0.87551 6.60682C1.60447 5.67655 2.8876 4.72387 4.72489 3.7488ZM21.358 38.8017C20.3116 38.4513 19.5259 37.7815 19.0009 36.7922C18.4758 35.8029 18.3709 34.7944 18.6859 33.7668C19.0175 32.6851 19.678 31.8818 20.6673 31.3568C21.6566 30.8317 22.6744 30.7444 23.7208 31.0948C24.7837 31.3911 25.5777 32.0339 26.1027 33.0232C26.6278 34.0125 26.7245 35.048 26.3928 36.1296C26.0778 37.1572 25.4256 37.9336 24.4363 38.4586C23.447 38.9836 22.4209 39.098 21.358 38.8017Z" fill="white"/>
</svg>
