<svg width="1834" height="1103" viewBox="0 0 1834 1103" fill="none" xmlns="http://www.w3.org/2000/svg">
<rect width="1834" height="1103" fill="white"/>
<rect width="1834" height="1103" fill="#FFFCF5"/>
<rect width="1834" height="1103" fill="#FFFCF5" fill-opacity="0.85"/>
<circle cx="79.5" cy="105.5" r="7.5" fill="#FDD202" fill-opacity="0.85"/>
<circle cx="475.5" cy="659.5" r="12.5" fill="#FDD202" fill-opacity="0.85"/>
<circle cx="1401.5" cy="935.5" r="12.5" fill="#FDD202" fill-opacity="0.85"/>
<circle cx="1389.5" cy="254.5" r="12.5" fill="#FDD202" fill-opacity="0.85"/>
<circle cx="151.5" cy="214.5" r="17.5" fill="white" fill-opacity="0.4"/>
<circle cx="1673.5" cy="394.5" r="17.5" fill="white" fill-opacity="0.4"/>
<circle cx="134.5" cy="985.5" r="17.5" fill="white" fill-opacity="0.4"/>
<circle cx="1205.5" cy="639.5" r="17.5" fill="white" fill-opacity="0.4"/>
<circle cx="693.5" cy="741.5" r="17.5" fill="white" fill-opacity="0.4"/>
<circle cx="281.5" cy="985.5" r="12.5" fill="#FDD202" fill-opacity="0.85"/>
<circle cx="1265.5" cy="493.5" r="7.5" fill="#FDD202" fill-opacity="0.85"/>
<circle cx="821.5" cy="810.5" r="7.5" fill="#FDD202" fill-opacity="0.85"/>
<circle cx="965.5" cy="189.5" r="7.5" fill="#FDD202" fill-opacity="0.85"/>
<circle cx="51.5" cy="723.5" r="7.5" fill="#FDD202" fill-opacity="0.85"/>
<circle cx="1793.5" cy="634.5" r="12.5" fill="#FDD202" fill-opacity="0.85"/>
<circle cx="640.5" cy="412.5" r="7.5" fill="#FDD202" fill-opacity="0.85"/>
<circle cx="675.5" cy="1031.5" r="7.5" fill="#FDD202" fill-opacity="0.85"/>
<circle cx="1071.5" cy="882.5" r="7.5" fill="#FDD202" fill-opacity="0.85"/>
<circle cx="301.5" cy="76.5" r="7.5" fill="#FDD202" fill-opacity="0.85"/>
<circle cx="1436.5" cy="566.5" r="7.5" fill="#FDD202" fill-opacity="0.85"/>
<circle cx="261.5" cy="629.5" r="7.5" fill="#FDD202" fill-opacity="0.85"/>
<circle cx="602.5" cy="824.5" r="7.5" fill="#FDD202" fill-opacity="0.85"/>
<circle cx="1085.5" cy="573.5" r="7.5" fill="#FDD202" fill-opacity="0.85"/>
<circle cx="1681.5" cy="898.5" r="7.5" fill="#FDD202" fill-opacity="0.85"/>
<circle cx="905.5" cy="555.5" r="3.5" fill="#FDD202" fill-opacity="0.85"/>
<circle cx="1141.5" cy="765.5" r="3.5" fill="#FDD202" fill-opacity="0.85"/>
<circle cx="1519.5" cy="314.5" r="3.5" fill="#FDD202" fill-opacity="0.85"/>
<circle cx="580.5" cy="909.5" r="3.5" fill="#FDD202" fill-opacity="0.85"/>
<circle cx="278.5" cy="258.5" r="3.5" fill="#FDD202" fill-opacity="0.85"/>
<circle cx="1082.5" cy="989.5" r="3.5" fill="#FDD202" fill-opacity="0.85"/>
<circle cx="737.5" cy="116.5" r="3.5" fill="#FDD202" fill-opacity="0.85"/>
<circle cx="235.5" cy="821.5" r="3.5" fill="#FDD202" fill-opacity="0.85"/>
<circle cx="444.5" cy="465.5" r="3.5" fill="#FDD202" fill-opacity="0.85"/>
<circle cx="1332.5" cy="692.5" r="3.5" fill="#FDD202" fill-opacity="0.85"/>
<circle cx="647.5" cy="602.5" r="3.5" fill="#FDD202" fill-opacity="0.85"/>
<circle cx="972.5" cy="712.5" r="3.5" fill="#FDD202" fill-opacity="0.85"/>
<circle cx="905.5" cy="555.5" r="3.5" fill="#FDD202" fill-opacity="0.85"/>
<circle cx="420.5" cy="982.5" r="3.5" fill="#FDD202" fill-opacity="0.85"/>
<circle cx="105.5" cy="894.5" r="3.5" fill="#FDD202" fill-opacity="0.85"/>
<circle cx="1040.5" cy="47.5" r="3.5" fill="#FDD202" fill-opacity="0.85"/>
<circle cx="806.5" cy="663.5" r="3.5" fill="#FDD202" fill-opacity="0.85"/>
<circle cx="758.5" cy="497.5" r="3.5" fill="#FDD202" fill-opacity="0.85"/>
<circle cx="1261.5" cy="871.5" r="3.5" fill="#FDD202" fill-opacity="0.85"/>
<circle cx="632.5" cy="254.5" r="3.5" fill="#FDD202" fill-opacity="0.85"/>
<circle cx="62.5" cy="325.5" r="3.5" fill="#FDD202" fill-opacity="0.85"/>
<circle cx="1380.5" cy="401.5" r="3.5" fill="#FDD202" fill-opacity="0.85"/>
<circle cx="417.5" cy="814.5" r="3.5" fill="#FDD202" fill-opacity="0.85"/>
<circle cx="1325.5" cy="33.5" r="3.5" fill="#FDD202" fill-opacity="0.85"/>
<circle cx="573.5" cy="26.5" r="3.5" fill="#FDD202" fill-opacity="0.85"/>
<circle cx="58.5" cy="1063.5" r="3.5" fill="#FDD202" fill-opacity="0.85"/>
<circle cx="1021.5" cy="297.5" r="3.5" fill="#FDD202" fill-opacity="0.85"/>
<circle cx="1336.5" cy="1020.5" r="3.5" fill="#FDD202" fill-opacity="0.85"/>
<circle cx="336.5" cy="465.5" r="3.5" fill="#FDD202" fill-opacity="0.85"/>
<circle cx="1137.5" cy="401.5" r="3.5" fill="#FDD202" fill-opacity="0.85"/>
<circle cx="1205.5" cy="153.5" r="3.5" fill="#FDD202" fill-opacity="0.85"/>
<circle cx="1617.5" cy="160.5" r="3.5" fill="#FDD202" fill-opacity="0.85"/>
<circle cx="795.5" cy="947.5" r="3.5" fill="#FDD202" fill-opacity="0.85"/>
<circle cx="466.5" cy="318.5" r="3.5" fill="#FDD202" fill-opacity="0.85"/>
<circle cx="1585.5" cy="768.5" r="3.5" fill="#FDD202" fill-opacity="0.85"/>
<circle cx="1578.5" cy="548.5" r="3.5" fill="#FDD202" fill-opacity="0.85"/>
<circle cx="979.5" cy="445.5" r="3.5" fill="#FDD202" fill-opacity="0.85"/>
<circle cx="802.5" cy="307.5" r="3.5" fill="#FDD202" fill-opacity="0.85"/>
<circle cx="1578.5" cy="1063.5" r="3.5" fill="#FDD202" fill-opacity="0.85"/>
<circle cx="1765.5" cy="304.5" r="3.5" fill="#FDD202" fill-opacity="0.85"/>
<circle cx="1497.5" cy="40.5" r="3.5" fill="#FDD202" fill-opacity="0.85"/>
<circle cx="159.5" cy="419.5" r="7.5" fill="#FDD202" fill-opacity="0.85"/>
<circle cx="455.5" cy="196.5" r="7.5" fill="#FDD202" fill-opacity="0.85"/>
</svg>
