<svg width="72" height="62" viewBox="0 0 72 62" fill="none" xmlns="http://www.w3.org/2000/svg">
<rect width="72" height="62" rx="31" fill="#FFD400"/>
<path d="M49.6875 48.5475V41.4657C49.6875 39.0338 48.6375 36.7182 46.8057 35.115L42.6732 31.5L46.8057 27.885C48.6376 26.2818 49.6875 23.9662 49.6875 21.5343V14.4525C50.7768 14.0643 51.5625 13.0331 51.5625 11.8125C51.5625 10.2618 50.3007 9 48.75 9H26.25C24.6993 9 23.4375 10.2618 23.4375 11.8125C23.4375 13.0331 24.2232 14.0643 25.3125 14.4525V21.5343C25.3125 23.9662 26.3625 26.2818 28.1943 27.885L32.3268 31.5L28.1943 35.115C26.3624 36.7182 25.3125 39.0338 25.3125 41.4657V48.5475C24.2232 48.9357 23.4375 49.9669 23.4375 51.1875C23.4375 52.7382 24.6993 54 26.25 54H48.75C50.3007 54 51.5625 52.7382 51.5625 51.1875C51.5625 49.9669 50.7768 48.9357 49.6875 48.5475ZM47.8125 48.375H27.1875V41.4657C27.1875 39.5738 28.005 37.7738 29.4281 36.5269L34.3669 32.2051C34.5712 32.0269 34.6875 31.7701 34.6875 31.5001C34.6875 31.2301 34.5712 30.9732 34.3669 30.7951L29.4281 26.4733C28.005 25.2264 27.1875 23.4264 27.1875 21.5345V14.625H47.8126V21.5343C47.8126 23.4262 46.9951 25.2262 45.572 26.4731L40.6332 30.7949C40.4288 30.9731 40.3125 31.23 40.3125 31.5C40.3125 31.77 40.4288 32.0269 40.6331 32.205L45.5719 36.5268C46.9968 37.7737 47.8125 39.5737 47.8125 41.4656V48.375Z" fill="#ED1C24"/>
<path d="M45.7331 44.9775L38.2331 35.6025C37.8769 35.1581 37.125 35.1581 36.7688 35.6025L29.2688 44.9775C29.0438 45.2588 29.0006 45.645 29.1563 45.9694C29.3119 46.2938 29.64 46.4999 30 46.4999H45.0001C45.3601 46.4999 45.6881 46.2937 45.8456 45.9694C46.0011 45.645 45.9581 45.2588 45.7331 44.9775Z" fill="#ED1C24"/>
<path d="M42.1163 24.5794C41.9719 24.2288 41.6288 24 41.2501 24H33.7501C33.3714 24 33.0283 24.2288 32.8839 24.5794C32.7376 24.93 32.8182 25.3313 33.0864 25.6013L36.8364 29.3513C37.0202 29.5332 37.2601 29.6251 37.5001 29.6251C37.7402 29.6251 37.9801 29.5333 38.1639 29.3513L41.9139 25.6013C42.1819 25.3332 42.2626 24.93 42.1163 24.5794Z" fill="#ED1C24"/>
</svg>
