<svg width="35" height="35" viewBox="0 0 35 35" fill="none" xmlns="http://www.w3.org/2000/svg">
<path d="M18.5938 19.4141C20.2703 19.4141 21.9091 18.9169 23.3031 17.9855C24.697 17.0541 25.7835 15.7302 26.4251 14.1813C27.0666 12.6325 27.2345 10.9281 26.9074 9.28381C26.5804 7.63952 25.7731 6.12914 24.5876 4.94367C23.4021 3.7582 21.8917 2.95089 20.2474 2.62382C18.6032 2.29675 16.8988 2.46461 15.3499 3.10618C13.801 3.74775 12.4772 4.83421 11.5457 6.22818C10.6143 7.62214 10.1172 9.261 10.1172 10.9375C10.1197 13.1848 11.0136 15.3394 12.6027 16.9285C14.1918 18.5177 16.3464 19.4115 18.5938 19.4141ZM18.5938 4.10157C19.9458 4.10157 21.2674 4.50249 22.3916 5.25363C23.5158 6.00477 24.3919 7.0724 24.9093 8.3215C25.4267 9.57061 25.5621 10.9451 25.2983 12.2711C25.0346 13.5972 24.3835 14.8152 23.4275 15.7712C22.4715 16.7273 21.2534 17.3783 19.9274 17.6421C18.6013 17.9059 17.2269 17.7705 15.9778 17.2531C14.7286 16.7357 13.661 15.8595 12.9099 14.7353C12.1587 13.6112 11.7578 12.2895 11.7578 10.9375C11.7599 9.12513 12.4807 7.38757 13.7623 6.10602C15.0438 4.82448 16.7814 4.10361 18.5938 4.10157Z" fill="#ED1C24"/>
<path d="M19.1406 13.3984H17.5C17.4275 13.3984 17.3579 13.3696 17.3067 13.3183C17.2554 13.2671 17.2266 13.1975 17.2266 13.125C17.2266 12.9074 17.1401 12.6988 16.9863 12.545C16.8325 12.3911 16.6238 12.3047 16.4062 12.3047C16.1887 12.3047 15.98 12.3911 15.8262 12.545C15.6724 12.6988 15.5859 12.9074 15.5859 13.125C15.5865 13.6325 15.7884 14.119 16.1472 14.4778C16.506 14.8366 16.9925 15.0385 17.5 15.0391H17.7734V16.4062C17.7734 16.6238 17.8599 16.8325 18.0137 16.9863C18.1675 17.1401 18.3762 17.2266 18.5938 17.2266C18.8113 17.2266 19.02 17.1401 19.1738 16.9863C19.3276 16.8325 19.4141 16.6238 19.4141 16.4062V15.0235C20.0385 14.9529 20.6123 14.646 21.0178 14.1659C21.4232 13.6857 21.6296 13.0687 21.5947 12.4412C21.5597 11.8137 21.286 11.2234 20.8297 10.7913C20.3734 10.3592 19.7691 10.118 19.1406 10.1172H18.0469C17.8293 10.1172 17.6207 10.0308 17.4668 9.87692C17.313 9.72308 17.2266 9.51444 17.2266 9.29688C17.2266 9.07931 17.313 8.87066 17.4668 8.71683C17.6207 8.56299 17.8293 8.47656 18.0469 8.47656H19.6875C19.76 8.47656 19.8296 8.50537 19.8808 8.55665C19.9321 8.60793 19.9609 8.67748 19.9609 8.75C19.9609 8.96756 20.0474 9.17621 20.2012 9.33005C20.355 9.48389 20.5637 9.57031 20.7812 9.57031C20.9988 9.57031 21.2075 9.48389 21.3613 9.33005C21.5151 9.17621 21.6016 8.96756 21.6016 8.75C21.601 8.24254 21.3991 7.75602 21.0403 7.39719C20.6815 7.03836 20.195 6.83652 19.6875 6.83594H19.4141V5.46875C19.4141 5.25119 19.3276 5.04254 19.1738 4.8887C19.02 4.73486 18.8113 4.64844 18.5938 4.64844C18.3762 4.64844 18.1675 4.73486 18.0137 4.8887C17.8599 5.04254 17.7734 5.25119 17.7734 5.46875V6.85152C17.149 6.92214 16.5752 7.22898 16.1697 7.70912C15.7643 8.18927 15.5579 8.80635 15.5928 9.43382C15.6278 10.0613 15.9015 10.6516 16.3578 11.0837C16.8141 11.5158 17.4184 11.757 18.0469 11.7578H19.1406C19.3582 11.7578 19.5668 11.8442 19.7207 11.9981C19.8745 12.1519 19.9609 12.3606 19.9609 12.5781C19.9609 12.7957 19.8745 13.0043 19.7207 13.1582C19.5668 13.312 19.3582 13.3984 19.1406 13.3984Z" fill="#ED1C24"/>
<path d="M28.8043 24.4225C28.5264 24.2835 26.0455 23.1068 24.5762 24.5762C24.5258 24.6265 24.4756 24.6792 24.4258 24.7334C23.1092 24.383 22.011 24.5738 21.295 25.2895C20.4218 26.1626 19.5866 27.6006 19.1764 28.3596L17.6725 28.6604L13.6468 25.9766H16.4062C18.0556 25.9766 19.3359 25.2329 20.011 23.8825C20.3187 23.2567 20.4882 22.5721 20.5078 21.875C20.5078 21.6574 20.4214 21.4488 20.2675 21.295C20.1137 21.1411 19.9051 21.0547 19.6875 21.0547H1.09375C0.87619 21.0547 0.66754 21.1411 0.513701 21.295C0.359863 21.4488 0.273438 21.6574 0.273438 21.875C0.273438 22.0926 0.359863 22.3012 0.513701 22.455C0.66754 22.6089 0.87619 22.6953 1.09375 22.6953H18.7236C18.672 22.8662 18.6047 23.0319 18.5227 23.1904C18.1194 23.9613 17.4272 24.3359 16.4062 24.3359H10.9375C10.1499 24.3104 9.81326 25.4234 10.4825 25.8387L17.045 30.2137C17.1346 30.2735 17.2352 30.315 17.3408 30.336C17.4465 30.3569 17.5553 30.3568 17.6609 30.3356L23.1297 29.2419C23.2521 29.2174 23.3674 29.1652 23.4666 29.0894C23.5658 29.0136 23.6465 28.9161 23.7023 28.8044C23.7113 28.7864 24.4912 27.2381 25.3398 26.1833C25.3433 26.1788 25.3471 26.1745 25.3506 26.1697C25.4715 26.0185 25.6003 25.8737 25.7363 25.7359C26.0648 25.4074 26.7243 25.4581 27.2945 25.6074L24.5913 31.0146L16.395 33.0637L6.74023 30.918C6.68188 30.905 6.62228 30.8985 6.5625 30.8984H1.09375C0.87619 30.8984 0.66754 30.9849 0.513701 31.1387C0.359863 31.2925 0.273438 31.5012 0.273438 31.7187C0.273438 31.9363 0.359863 32.145 0.513701 32.2988C0.66754 32.4526 0.87619 32.5391 1.09375 32.5391H6.47247L16.2285 34.707C16.3528 34.7347 16.4819 34.733 16.6054 34.7021L25.3554 32.5146C25.4703 32.4859 25.5775 32.4327 25.6698 32.3587C25.7621 32.2846 25.8373 32.1915 25.8902 32.0856L29.1715 25.5231C29.2675 25.3283 29.2827 25.1035 29.214 24.8974C29.1453 24.6914 28.9981 24.5207 28.8043 24.4225ZM22.4233 27.71L21.3309 27.9288C21.697 27.3554 22.0933 26.8114 22.455 26.4496C22.6601 26.2445 22.9814 26.1911 23.3101 26.2067C22.9277 26.7952 22.6117 27.3589 22.4233 27.71Z" fill="#ED1C24"/>
<path d="M34.4863 14.7325C34.3325 14.5786 34.1238 14.4922 33.9063 14.4922C33.6887 14.4922 33.4801 14.5786 33.3262 14.7325L32.5391 15.5196V12.0312C32.5391 11.8137 32.4527 11.605 32.2988 11.4512C32.145 11.2974 31.9363 11.2109 31.7188 11.2109C31.5012 11.2109 31.2926 11.2974 31.1387 11.4512C30.9849 11.605 30.8985 11.8137 30.8985 12.0312V15.5196L30.1113 14.7325C29.957 14.5807 29.7491 14.496 29.5327 14.4969C29.3163 14.4978 29.109 14.5842 28.956 14.7372C28.8029 14.8902 28.7166 15.0975 28.7157 15.3139C28.7148 15.5303 28.7995 15.7383 28.9513 15.8925L31.1388 18.08C31.2926 18.2338 31.5012 18.3203 31.7188 18.3203C31.9363 18.3203 32.145 18.2338 32.2988 18.08L34.4863 15.8925C34.6401 15.7387 34.7265 15.53 34.7265 15.3125C34.7265 15.0949 34.6401 14.8863 34.4863 14.7325Z" fill="#ED1C24"/>
<path d="M31.7188 9.5703C31.9363 9.5703 32.145 9.48388 32.2988 9.33004C32.4526 9.1762 32.5391 8.96755 32.5391 8.74999V7.65624C32.5391 7.43868 32.4526 7.23003 32.2988 7.07619C32.145 6.92236 31.9363 6.83593 31.7188 6.83593C31.5012 6.83593 31.2925 6.92236 31.1387 7.07619C30.9849 7.23003 30.8984 7.43868 30.8984 7.65624V8.74999C30.8984 8.96755 30.9849 9.1762 31.1387 9.33004C31.2925 9.48388 31.5012 9.5703 31.7188 9.5703Z" fill="#ED1C24"/>
<path d="M4.88876 18.08C5.04259 18.2338 5.25124 18.3203 5.46879 18.3203C5.68634 18.3203 5.89498 18.2338 6.04882 18.08L8.23632 15.8925C8.38809 15.7383 8.47275 15.5303 8.47187 15.3139C8.47099 15.0975 8.38463 14.8902 8.23161 14.7372C8.07859 14.5842 7.8713 14.4978 7.6549 14.4969C7.4385 14.496 7.23052 14.5807 7.07626 14.7325L6.2891 15.5196V12.0312C6.2891 11.8137 6.20267 11.605 6.04884 11.4512C5.895 11.2974 5.68635 11.2109 5.46879 11.2109C5.25123 11.2109 5.04258 11.2974 4.88874 11.4512C4.7349 11.605 4.64847 11.8137 4.64847 12.0312V15.5196L3.86132 14.7325C3.70705 14.5807 3.49907 14.496 3.28267 14.4969C3.06627 14.4978 2.85898 14.5842 2.70596 14.7372C2.55294 14.8902 2.46659 15.0975 2.46571 15.3139C2.46482 15.5303 2.54949 15.7383 2.70126 15.8925L4.88876 18.08Z" fill="#ED1C24"/>
<path d="M5.46875 9.5703C5.68631 9.5703 5.89496 9.48388 6.0488 9.33004C6.20264 9.1762 6.28906 8.96755 6.28906 8.74999V7.65624C6.28906 7.43868 6.20264 7.23003 6.0488 7.07619C5.89496 6.92236 5.68631 6.83593 5.46875 6.83593C5.25119 6.83593 5.04254 6.92236 4.8887 7.07619C4.73486 7.23003 4.64844 7.43868 4.64844 7.65624V8.74999C4.64844 8.96755 4.73486 9.1762 4.8887 9.33004C5.04254 9.48388 5.25119 9.5703 5.46875 9.5703Z" fill="#ED1C24"/>
</svg>
