<svg width="55" height="53" viewBox="0 0 55 53" fill="none" xmlns="http://www.w3.org/2000/svg">
<path d="M0.5 26.5C0.5 11.8645 12.3645 0 27 0H28C42.6355 0 54.5 11.8645 54.5 26.5C54.5 41.1355 42.6355 53 28 53H27C12.3645 53 0.5 41.1355 0.5 26.5Z" fill="#FFD400"/>
<path d="M38.8369 23.0995C38.6963 23.1614 38.5334 23.1614 38.3928 23.0871L34.0033 20.8895C33.7223 20.7409 33.6043 20.3695 33.7392 20.06C33.8684 19.7629 34.1888 19.6266 34.4642 19.7629L37.5386 21.3043C36.0717 16.4695 31.9856 13.2381 27.2814 13.2381C22.3523 13.2381 18.0415 16.8657 16.7994 22.0595C16.7208 22.3876 16.4116 22.5857 16.1138 22.499C15.8159 22.4124 15.636 22.0719 15.7147 21.7438C17.0861 16.0114 21.8409 12 27.2814 12C32.469 12 36.9822 15.5657 38.6121 20.9019L39.9048 17.3424C40.0003 17.0205 40.3206 16.841 40.6129 16.9462C40.9052 17.0514 41.0682 17.4043 40.9726 17.7262C40.967 17.751 40.9558 17.7757 40.9446 17.8005L39.1516 22.7529C39.0954 22.9076 38.983 23.0376 38.8369 23.0995Z" fill="#ED1C24"/>
<path d="M14.0342 32.2367C14.0398 32.2243 14.0454 32.2119 14.0454 32.1995L15.8383 27.2472C15.8945 27.0924 16.0069 26.9624 16.153 26.9005C16.2936 26.8386 16.4565 26.8448 16.5971 26.9129L20.9866 29.1105C21.2732 29.2405 21.4081 29.6057 21.2901 29.9214C21.1721 30.2372 20.8405 30.3857 20.5538 30.2557C20.5426 30.2495 20.5313 30.2434 20.5201 30.2372L17.4458 28.6957C18.9239 33.5305 23.0156 36.7619 27.7142 36.7619C32.6432 36.7619 36.954 33.1343 38.1961 27.9405C38.2748 27.6124 38.5839 27.4143 38.8818 27.501C39.1796 27.5876 39.3595 27.9281 39.2808 28.2562C37.9151 33.9948 33.1546 38 27.7141 38C22.5265 38 18.019 34.4343 16.3835 29.0981L15.0908 32.6576C14.984 32.9795 14.6636 33.1467 14.3714 33.029C14.0792 32.9114 13.9274 32.5586 14.0342 32.2367Z" fill="#ED1C24"/>
<path d="M31.5579 23.3588L29.2653 21.0671C29.2223 21.0242 29.1642 21 29.1033 21H24.2917C23.7861 21 23.375 21.4111 23.375 21.9167V31.0833C23.375 31.5889 23.7861 32 24.2917 32H30.7083C31.2139 32 31.625 31.5889 31.625 31.0833V23.5208C31.625 23.46 31.6008 23.4018 31.5579 23.3588ZM31.1667 31.0833C31.1667 31.336 30.961 31.5417 30.7083 31.5417H24.2917C24.039 31.5417 23.8333 31.336 23.8333 31.0833V21.9167C23.8333 21.664 24.039 21.4583 24.2917 21.4583H29.0084L31.1667 23.6157V31.0833Z" fill="#ED1C24"/>
<path d="M24.75 25.8125V29.9375C24.75 30.3166 25.0584 30.625 25.4375 30.625H29.5625C29.9416 30.625 30.25 30.3166 30.25 29.9375V25.8125C30.25 25.4334 29.9416 25.125 29.5625 25.125H25.4375C25.0584 25.125 24.75 25.4334 24.75 25.8125ZM26.3542 30.1667H25.4375C25.3111 30.1667 25.2083 30.064 25.2083 29.9375V29.0208H26.3542V30.1667H26.3542ZM28.1875 30.1667H26.8125V29.0208H28.1875V30.1667ZM29.7917 29.9375C29.7917 30.0639 29.689 30.1667 29.5625 30.1667H28.6458V28.7917C28.6458 28.665 28.5433 28.5625 28.4167 28.5625H25.2083V27.1875H29.7917V29.9375H29.7917ZM28.6458 25.5833H29.5625C29.6889 25.5833 29.7917 25.686 29.7917 25.8125V26.7292H28.6458V25.5833H28.6458ZM26.8125 25.5833H28.1875V26.7292H26.8125V25.5833ZM26.3542 26.7292H25.2083V25.8125C25.2083 25.6861 25.3111 25.5833 25.4375 25.5833H26.3542V26.7292H26.3542Z" fill="#ED1C24"/>
</svg>
