<svg width="25" height="25" viewBox="0 0 25 25" fill="none" xmlns="http://www.w3.org/2000/svg">
<g clip-path="url(#clip0_528:103)">
<rect width="25" height="25" fill="#ED1C24" fill-opacity="0.01"/>
<path d="M20.8658 13.5371C20.8058 13.5068 20.7456 13.4917 20.685 13.4917C20.5546 13.4917 20.4396 13.5418 20.3395 13.6421L19.3773 14.6042C19.2873 14.6945 19.2422 14.8046 19.2422 14.935V18.7531C19.2422 19.4147 19.0072 19.9806 18.5358 20.4519C18.0648 20.9229 17.4985 21.1584 16.837 21.1584H4.32951C3.66797 21.1584 3.10167 20.9229 2.63069 20.4519C2.15959 19.9807 1.92418 19.4147 1.92418 18.7531V6.24588C1.92418 5.58445 2.15959 5.01821 2.63069 4.54707C3.10167 4.07603 3.66797 3.84056 4.32951 3.84056H16.8371C17.0576 3.84056 17.2831 3.87063 17.5135 3.93081C17.5737 3.95071 17.6188 3.96087 17.6485 3.96087C17.779 3.96087 17.8943 3.91091 17.9944 3.81071L18.731 3.07408C18.8512 2.95398 18.8965 2.80855 18.8662 2.63832C18.8361 2.47794 18.7458 2.36263 18.5955 2.29254C18.0546 2.04233 17.468 1.91665 16.8367 1.91665H4.32951C3.1369 1.91665 2.1171 2.34009 1.27022 3.18697C0.423441 4.03396 0 5.05359 0 6.24625V18.7538C0 19.9462 0.423441 20.9659 1.27027 21.8128C2.11715 22.6599 3.13695 23.0834 4.32956 23.0834H16.837C18.0294 23.0834 19.0493 22.6599 19.8962 21.8128C20.7432 20.9659 21.167 19.9463 21.167 18.7538V13.973C21.1669 13.7627 21.0661 13.6174 20.8658 13.5371Z" fill="black"/>
<path d="M24.6392 4.90817L22.9854 3.25437C22.7449 3.0139 22.4591 2.89364 22.1282 2.89364C21.7978 2.89364 21.5118 3.0139 21.2715 3.25437L11.545 12.9808L7.59154 9.0271C7.35096 8.78648 7.06526 8.66637 6.73465 8.66637C6.40398 8.66637 6.11839 8.78648 5.87776 9.0271L4.22417 10.6807C3.98365 10.9212 3.86328 11.2069 3.86328 11.5377C3.86328 11.8684 3.98365 12.154 4.22417 12.3946L10.6883 18.8588C10.9289 19.0994 11.2146 19.2195 11.5452 19.2195C11.8758 19.2195 12.1615 19.0995 12.4021 18.8588L24.639 6.62189C24.8794 6.38142 24.9999 6.09566 24.9999 5.765C24.9999 5.43433 24.8797 5.14864 24.6392 4.90817Z" fill="black"/>
</g>
<defs>
<clipPath id="clip0_528:103">
<rect width="25" height="25" fill="white"/>
</clipPath>
</defs>
</svg>
