<svg width="45" height="45" viewBox="0 0 45 45" fill="none" xmlns="http://www.w3.org/2000/svg">
<g clip-path="url(#clip0)">
<rect width="45" height="45" fill="#ED1C24" fill-opacity="0.01"/>
<path d="M37.5584 24.3668C37.4504 24.3123 37.3421 24.2851 37.233 24.2851C36.9982 24.2851 36.7913 24.3752 36.611 24.5558L34.8791 26.2875C34.7172 26.4501 34.6359 26.6482 34.6359 26.883V33.7555C34.6359 34.9464 34.2129 35.9651 33.3644 36.8134C32.5167 37.6612 31.4973 38.0851 30.3066 38.0851H7.79311C6.60234 38.0851 5.58301 37.6612 4.73524 36.8134C3.88727 35.9652 3.46352 34.9465 3.46352 33.7555V11.2426C3.46352 10.052 3.88727 9.03278 4.73524 8.18472C5.58301 7.33685 6.60234 6.91301 7.79311 6.91301H30.3068C30.7037 6.91301 31.1095 6.96712 31.5244 7.07545C31.6327 7.11128 31.7138 7.12957 31.7673 7.12957C32.0021 7.12957 32.2097 7.03963 32.39 6.85927L33.7159 5.53334C33.9322 5.31716 34.0137 5.05539 33.9591 4.74897C33.905 4.46028 33.7424 4.25272 33.4718 4.12658C32.4983 3.6762 31.4425 3.44997 30.306 3.44997H7.79311C5.64642 3.44997 3.81078 4.21216 2.28639 5.73655C0.762195 7.26112 0 9.09647 0 11.2433V33.7568C0 35.9032 0.762195 37.7387 2.28649 39.2631C3.81088 40.7878 5.64651 41.55 7.79321 41.55H30.3066C32.453 41.55 34.2888 40.7878 35.8132 39.2631C37.3377 37.7387 38.1005 35.9033 38.1005 33.7568V25.1513C38.1003 24.7728 37.919 24.5114 37.5584 24.3668Z" fill="#ED1C24"/>
<path d="M44.3508 8.83469L41.3739 5.85786C40.941 5.42501 40.4265 5.20854 39.831 5.20854C39.2363 5.20854 38.7215 5.42501 38.2889 5.85786L20.7812 23.3655L13.665 16.2488C13.2319 15.8157 12.7177 15.5995 12.1226 15.5995C11.5274 15.5995 11.0133 15.8157 10.5802 16.2488L7.6037 19.2252C7.17076 19.6582 6.9541 20.1724 6.9541 20.7679C6.9541 21.3631 7.17076 21.8772 7.6037 22.3103L19.2392 33.9457C19.6722 34.379 20.1865 34.5951 20.7816 34.5951C21.3767 34.5951 21.8908 34.3791 22.324 33.9457L44.3505 11.9194C44.7831 11.4865 45.0001 10.9722 45.0001 10.377C45.0001 9.7818 44.7837 9.26754 44.3508 8.83469Z" fill="#ED1C24"/>
</g>
<defs>
<clipPath id="clip0">
<rect width="45" height="45" fill="white"/>
</clipPath>
</defs>
</svg>
