<svg width="35" height="35" viewBox="0 0 35 35" fill="none" xmlns="http://www.w3.org/2000/svg">
<path d="M11.6667 19.25H10.5V20.4167H11.6667V19.25Z" fill="#ED1C24"/>
<path d="M11.6667 21.5833H10.5V22.75H11.6667V21.5833Z" fill="#ED1C24"/>
<path d="M11.6667 23.9167H10.5V25.0833H11.6667V23.9167Z" fill="#ED1C24"/>
<path d="M11.6667 16.9167H10.5V18.0833H11.6667V16.9167Z" fill="#ED1C24"/>
<path d="M11.6667 14.5833H10.5V15.75H11.6667V14.5833Z" fill="#ED1C24"/>
<path d="M11.6667 12.25H10.5V13.4167H11.6667V12.25Z" fill="#ED1C24"/>
<path d="M11.6667 9.91667H10.5V11.0833H11.6667V9.91667Z" fill="#ED1C24"/>
<path d="M3.50004 9.91667H2.33337V11.0833H3.50004V9.91667Z" fill="#ED1C24"/>
<path d="M32.6667 9.91667H31.5V11.0833H32.6667V9.91667Z" fill="#ED1C24"/>
<path d="M32.6667 23.9167H31.5V25.0833H32.6667V23.9167Z" fill="#ED1C24"/>
<path d="M3.50004 23.9167H2.33337V25.0833H3.50004V23.9167Z" fill="#ED1C24"/>
<path d="M34.4167 14.5833C34.7388 14.5833 35 14.3221 35 14V8.16667C35 7.84452 34.7388 7.58333 34.4167 7.58333H0.583333C0.261187 7.58333 0 7.84452 0 8.16667V14C0 14.3221 0.261187 14.5833 0.583333 14.5833C2.19414 14.5833 3.5 15.8892 3.5 17.5C3.5 19.1108 2.19414 20.4167 0.583333 20.4167C0.261187 20.4167 0 20.6779 0 21V26.8333C0 27.1555 0.261187 27.4167 0.583333 27.4167H34.4167C34.7388 27.4167 35 27.1555 35 26.8333V21C35 20.6779 34.7388 20.4167 34.4167 20.4167C32.8059 20.4167 31.5 19.1108 31.5 17.5C31.5 15.8892 32.8059 14.5833 34.4167 14.5833ZM30.3715 18.0801C30.6291 19.8746 32.0389 21.2844 33.8333 21.5419V26.25H1.16667V21.5419C3.39894 21.2215 4.94885 19.1522 4.62846 16.9199C4.37092 15.1255 2.96115 13.7156 1.16667 13.4581V8.75H33.8333V13.4581C31.6011 13.7785 30.0511 15.8478 30.3715 18.0801Z" fill="#ED1C24"/>
<path d="M17.5 11.6667C16.2113 11.6667 15.1666 12.7113 15.1666 14C15.1666 15.2887 16.2113 16.3333 17.5 16.3333C18.7886 16.3333 19.8333 15.2887 19.8333 14C19.8333 12.7113 18.7886 11.6667 17.5 11.6667ZM17.5 15.1667C16.8556 15.1667 16.3333 14.6444 16.3333 14C16.3333 13.3556 16.8556 12.8333 17.5 12.8333C18.1443 12.8333 18.6666 13.3556 18.6666 14C18.6666 14.6444 18.1443 15.1667 17.5 15.1667Z" fill="#ED1C24"/>
<path d="M24.5 18.6667C23.2113 18.6667 22.1666 19.7113 22.1666 21C22.1666 22.2887 23.2113 23.3333 24.5 23.3333C25.7886 23.3333 26.8333 22.2887 26.8333 21C26.8333 19.7113 25.7886 18.6667 24.5 18.6667ZM24.5 22.1667C23.8556 22.1667 23.3333 21.6444 23.3333 21C23.3333 20.3556 23.8556 19.8333 24.5 19.8333C25.1443 19.8333 25.6666 20.3556 25.6666 21C25.6666 21.6444 25.1443 22.1667 24.5 22.1667Z" fill="#ED1C24"/>
<path d="M25.254 12.4197L15.9209 21.7528L16.7458 22.5778L26.079 13.2447L25.254 12.4197Z" fill="#ED1C24"/>
</svg>
