<svg width="25" height="26" viewBox="0 0 25 26" fill="none" xmlns="http://www.w3.org/2000/svg">
<g clip-path="url(#clip0)">
<path d="M23.074 16.333C22.7301 16.333 22.4514 16.6229 22.4514 16.9806V22.73C22.4502 23.8024 21.6147 24.6716 20.5835 24.6726H3.11315C2.08192 24.6716 1.24647 23.8024 1.24526 22.73V5.85587C1.24647 4.78365 2.08192 3.91453 3.11315 3.91327H8.64142C8.98532 3.91327 9.26405 3.62339 9.26405 3.26573C9.26405 2.90832 8.98532 2.6182 8.64142 2.6182H3.11315C1.39459 2.62022 0.00194572 4.06858 0 5.85587V22.7302C0.00194572 24.5175 1.39459 25.9659 3.11315 25.9679H20.5835C22.3021 25.9659 23.6947 24.5175 23.6966 22.7302V16.9806C23.6966 16.6229 23.4179 16.333 23.074 16.333Z" fill="white"/>
<path d="M23.4499 0.952058C22.3557 -0.185934 20.5817 -0.185934 19.4874 0.952058L8.37934 12.5045C8.30322 12.5837 8.24825 12.6818 8.21955 12.7895L6.7588 18.2741C6.69873 18.499 6.75978 18.7398 6.91835 18.905C7.07717 19.0699 7.30871 19.1334 7.52493 19.0711L12.7986 17.5517C12.9022 17.5219 12.9965 17.4647 13.0727 17.3855L24.1805 5.83285C25.273 4.6941 25.273 2.85065 24.1805 1.7119L23.4499 0.952058ZM9.73599 12.9254L18.8271 3.47036L21.7591 6.51959L12.6677 15.9746L9.73599 12.9254ZM9.15033 14.1476L11.4927 16.584L8.25263 17.5176L9.15033 14.1476ZM23.3001 4.9172L22.6397 5.60394L19.7076 2.55445L20.3681 1.86771C20.9759 1.23561 21.9614 1.23561 22.5692 1.86771L23.3001 2.62755C23.9069 3.26042 23.9069 4.28459 23.3001 4.9172Z" fill="white"/>
</g>
<defs>
<clipPath id="clip0">
<rect width="25" height="26" fill="white"/>
</clipPath>
</defs>
</svg>
