<svg width="54" height="53" viewBox="0 0 54 53" fill="none" xmlns="http://www.w3.org/2000/svg">
<rect width="54" height="53" rx="26.5" fill="#FFD400"/>
<path d="M43.3594 12.375C43.5044 12.375 43.6435 12.3174 43.7461 12.2148C43.8486 12.1123 43.9062 11.9732 43.9062 11.8281V8.54688C43.9062 8.40183 43.8486 8.26273 43.7461 8.16018C43.6435 8.05762 43.5044 8 43.3594 8H40.0781C39.9331 8 39.794 8.05762 39.6914 8.16018C39.5889 8.26273 39.5312 8.40183 39.5312 8.54688V9.64062H29.1406V8.54688C29.1406 8.40183 29.083 8.26273 28.9804 8.16018C28.8779 8.05762 28.7388 8 28.5938 8H25.3125C25.1675 8 25.0284 8.05762 24.9258 8.16018C24.8232 8.26273 24.7656 8.40183 24.7656 8.54688V9.64062H14.375V8.54688C14.375 8.40183 14.3174 8.26273 14.2148 8.16018C14.1123 8.05762 13.9732 8 13.8281 8H10.5469C10.4018 8 10.2627 8.05762 10.1602 8.16018C10.0576 8.26273 10 8.40183 10 8.54688V11.8281C10 11.9732 10.0576 12.1123 10.1602 12.2148C10.2627 12.3174 10.4018 12.375 10.5469 12.375H11.6406V22.7656H10.5469C10.4018 22.7656 10.2627 22.8232 10.1602 22.9258C10.0576 23.0284 10 23.1675 10 23.3125V26.5938C10 26.7388 10.0576 26.8779 10.1602 26.9804C10.2627 27.083 10.4018 27.1406 10.5469 27.1406H11.6406V37.5312H10.5469C10.4018 37.5312 10.2627 37.5889 10.1602 37.6914C10.0576 37.794 10 37.9331 10 38.0781V41.3594C10 41.5044 10.0576 41.6435 10.1602 41.7461C10.2627 41.8486 10.4018 41.9062 10.5469 41.9062H13.8281C13.9732 41.9062 14.1123 41.8486 14.2148 41.7461C14.3174 41.6435 14.375 41.5044 14.375 41.3594V40.2656H24.7656V41.3594C24.7656 41.5044 24.8232 41.6435 24.9258 41.7461C25.0284 41.8486 25.1675 41.9062 25.3125 41.9062H28.5938C28.7388 41.9062 28.8779 41.8486 28.9804 41.7461C29.083 41.6435 29.1406 41.5044 29.1406 41.3594V40.2656H39.5312V41.3594C39.5312 41.5044 39.5889 41.6435 39.6914 41.7461C39.794 41.8486 39.9331 41.9062 40.0781 41.9062H43.3594C43.5044 41.9062 43.6435 41.8486 43.7461 41.7461C43.8486 41.6435 43.9062 41.5044 43.9062 41.3594V38.0781C43.9062 37.9331 43.8486 37.794 43.7461 37.6914C43.6435 37.5889 43.5044 37.5312 43.3594 37.5312H42.2656V27.1406H43.3594C43.5044 27.1406 43.6435 27.083 43.7461 26.9804C43.8486 26.8779 43.9062 26.7388 43.9062 26.5938V23.3125C43.9062 23.1675 43.8486 23.0284 43.7461 22.9258C43.6435 22.8232 43.5044 22.7656 43.3594 22.7656H42.2656V12.375H43.3594ZM40.625 9.09375H42.8125V11.2812H40.625V9.09375ZM25.8594 9.09375H28.0469V11.2812H25.8594V9.09375ZM11.0938 11.2812V9.09375H13.2812V11.2812H11.0938ZM11.0938 26.0469V23.8594H13.2812V26.0469H11.0938ZM13.2812 40.8125H11.0938V38.625H13.2812V40.8125ZM28.0469 40.8125H25.8594V38.625H28.0469V40.8125ZM42.8125 38.625V40.8125H40.625V38.625H42.8125ZM42.8125 23.8594V26.0469H40.625V23.8594H42.8125ZM41.1719 22.7656H40.0781C39.9331 22.7656 39.794 22.8232 39.6914 22.9258C39.5889 23.0284 39.5312 23.1675 39.5312 23.3125V26.5938C39.5312 26.7388 39.5889 26.8779 39.6914 26.9804C39.794 27.083 39.9331 27.1406 40.0781 27.1406H41.1719V37.5312H40.0781C39.9331 37.5312 39.794 37.5889 39.6914 37.6914C39.5889 37.794 39.5312 37.9331 39.5312 38.0781V39.1719H29.1406V38.0781C29.1406 37.9331 29.083 37.794 28.9804 37.6914C28.8779 37.5889 28.7388 37.5312 28.5938 37.5312H25.3125C25.1675 37.5312 25.0284 37.5889 24.9258 37.6914C24.8232 37.794 24.7656 37.9331 24.7656 38.0781V39.1719H14.375V38.0781C14.375 37.9331 14.3174 37.794 14.2148 37.6914C14.1123 37.5889 13.9732 37.5312 13.8281 37.5312H12.7344V27.1406H13.8281C13.9732 27.1406 14.1123 27.083 14.2148 26.9804C14.3174 26.8779 14.375 26.7388 14.375 26.5938V23.3125C14.375 23.1675 14.3174 23.0284 14.2148 22.9258C14.1123 22.8232 13.9732 22.7656 13.8281 22.7656H12.7344V12.375H13.8281C13.9732 12.375 14.1123 12.3174 14.2148 12.2148C14.3174 12.1123 14.375 11.9732 14.375 11.8281V10.7344H24.7656V11.8281C24.7656 11.9732 24.8232 12.1123 24.9258 12.2148C25.0284 12.3174 25.1675 12.375 25.3125 12.375H28.5938C28.7388 12.375 28.8779 12.3174 28.9804 12.2148C29.083 12.1123 29.1406 11.9732 29.1406 11.8281V10.7344H39.5312V11.8281C39.5312 11.9732 39.5889 12.1123 39.6914 12.2148C39.794 12.3174 39.9331 12.375 40.0781 12.375H41.1719V22.7656Z" fill="#ED1C24"/>
<path d="M25.8594 33.1562H25.3125C25.1675 33.1562 25.0284 33.2139 24.9258 33.3164C24.8232 33.419 24.7656 33.5581 24.7656 33.7031C24.7656 33.8482 24.8232 33.9873 24.9258 34.0898C25.0284 34.1924 25.1675 34.25 25.3125 34.25H25.8594C26.0044 34.25 26.1435 34.1924 26.2461 34.0898C26.3486 33.9873 26.4062 33.8482 26.4062 33.7031C26.4062 33.5581 26.3486 33.419 26.2461 33.3164C26.1435 33.2139 26.0044 33.1562 25.8594 33.1562Z" fill="#ED1C24"/>
<path d="M36.25 16.2031V21.6719C36.25 21.8169 36.1924 21.956 36.0898 22.0586C35.9873 22.1611 35.8482 22.2188 35.7031 22.2188C35.5581 22.2188 35.419 22.1611 35.3164 22.0586C35.2139 21.956 35.1562 21.8169 35.1562 21.6719V17.5211L19.5211 33.1562H23.6719C23.8169 33.1562 23.956 33.2139 24.0586 33.3164C24.1611 33.419 24.2188 33.5581 24.2188 33.7031C24.2188 33.8482 24.1611 33.9873 24.0586 34.0898C23.956 34.1924 23.8169 34.25 23.6719 34.25H18.2031C18.1317 34.2491 18.0611 34.2343 17.9953 34.2062C17.9284 34.18 17.8677 34.1402 17.8169 34.0894C17.7661 34.0386 17.7263 33.9778 17.7 33.9109C17.672 33.8452 17.6571 33.7746 17.6562 33.7031V28.2344C17.6562 28.0893 17.7139 27.9502 17.8164 27.8477C17.919 27.7451 18.0581 27.6875 18.2031 27.6875C18.3482 27.6875 18.4873 27.7451 18.5898 27.8477C18.6924 27.9502 18.75 28.0893 18.75 28.2344V32.3852L34.3852 16.75H30.2344C30.0893 16.75 29.9502 16.6924 29.8477 16.5898C29.7451 16.4873 29.6875 16.3482 29.6875 16.2031C29.6875 16.0581 29.7451 15.919 29.8477 15.8164C29.9502 15.7139 30.0893 15.6562 30.2344 15.6562H35.7031C35.7746 15.6571 35.8452 15.672 35.9109 15.7C35.9778 15.7263 36.0386 15.7661 36.0894 15.8169C36.1402 15.8677 36.18 15.9284 36.2062 15.9953C36.2343 16.0611 36.2491 16.1317 36.25 16.2031Z" fill="#ED1C24"/>
</svg>
