<svg width="35" height="35" viewBox="0 0 35 35" fill="none" xmlns="http://www.w3.org/2000/svg">
<path d="M11.5527 11.2109V16.8848H23.4473V14.8271C21.9885 14.6173 20.4005 13.9706 18.7106 12.8967C17.6654 12.2329 16.8485 11.5705 16.4288 11.2109H11.5527Z" fill="white"/>
<path d="M23.2422 7.65625C23.2422 6.14831 23.2422 1.42632 23.2422 0H4.13574V35H30.8643V7.65625C30.8643 7.65625 23.9464 7.65625 23.2422 7.65625ZM11.0742 27.4805V29.5312H9.02344V27.4805H11.0742ZM9.02344 25.4297V23.3789H11.0742V25.4297H9.02344ZM13.125 29.5312V27.4805H25.9766V29.5312H13.125ZM25.9766 25.4297H13.125V23.3789H25.9766V25.4297ZM24.4727 12.8516H25.498V18.9355H9.50195V9.16016H17.2197C17.5044 9.39791 20.9357 12.7558 24.4727 12.8516Z" fill="white"/>
<path d="M25.293 5.60547H30.8089L25.293 0V5.60547Z" fill="white"/>
</svg>
