<svg width="35" height="35" viewBox="0 0 35 35" fill="none" xmlns="http://www.w3.org/2000/svg">
<path d="M2.36023 3.12478C2.41097 3.32472 2.55113 3.49025 2.74007 3.57319C2.929 3.65613 3.14563 3.64733 3.32726 3.54933L3.86951 3.2566V9.78998C3.86951 10.1597 4.1693 10.4595 4.53906 10.4595H5.85454C6.2243 10.4595 6.5241 10.1597 6.5241 9.78998V0.818635C6.5241 0.448874 6.2243 0.14908 5.85454 0.14908H4.85125C4.66533 0.14908 4.48219 0.194953 4.31827 0.28276L2.42128 1.29798C2.14998 1.44324 2.01259 1.75474 2.08824 2.05303L2.36023 3.12478Z" fill="white"/>
<path d="M18.2317 9.78998V8.63703C18.2317 8.26727 17.9319 7.96747 17.5622 7.96747H15.3786C16.911 6.43862 18.015 5.05004 18.015 3.31233C18.015 1.7171 16.9359 0 14.567 0C13.465 0 12.4073 0.380534 11.5889 1.07164L11.5416 1.11148C11.3131 1.30459 11.2403 1.62593 11.3635 1.89862L11.8127 2.89322C11.8988 3.08389 12.069 3.22325 12.2729 3.27016C12.4768 3.31708 12.6908 3.26588 12.8515 3.13208L12.9342 3.06327C13.1904 2.84989 13.7112 2.49207 14.3232 2.49207C15.0312 2.49207 15.3199 2.77298 15.3199 3.45377C15.3094 4.47247 14.4135 5.48803 12.2685 7.52948L11.3088 8.46141C11.1789 8.58745 11.1057 8.76075 11.1057 8.94169V9.78998C11.1057 10.1597 11.4055 10.4595 11.7753 10.4595H17.5622C17.9319 10.4595 18.2317 10.1597 18.2317 9.78998Z" fill="white"/>
<path d="M21.1748 9.85393L21.2283 9.88902C21.7341 10.221 22.7452 10.6086 23.9306 10.6086C26.6533 10.6086 27.8935 8.84936 27.8935 7.21498C27.8935 6.24586 27.4552 5.3964 26.7245 4.83713C27.2584 4.30913 27.5548 3.6215 27.5548 2.85175C27.5547 1.47812 26.5309 0 24.283 0C23.0806 0 22.0508 0.443783 21.5341 0.823738L21.485 0.859764C21.2463 1.03526 21.1514 1.34687 21.2516 1.6257L21.6205 2.65227C21.6916 2.84966 21.8508 3.00234 22.051 3.06489C22.2512 3.12733 22.4692 3.09246 22.6398 2.97048L22.7279 2.90758C23.0362 2.68714 23.5654 2.46473 24.0524 2.46473C24.8458 2.46473 24.8458 2.86878 24.8458 3.04138C24.8458 3.64467 23.9472 3.78044 23.6323 3.78044H22.8866C22.5168 3.78044 22.217 4.08023 22.217 4.44999V5.50796C22.217 5.87772 22.5168 6.17751 22.8866 6.17751H23.6323C23.9875 6.17751 25.1471 6.25084 25.1575 7.20142C25.1596 7.31471 25.1408 7.60211 24.9214 7.82557C24.6635 8.08829 24.2328 8.14343 23.917 8.14343C23.2835 8.14343 22.6453 7.8821 22.3708 7.70637L22.2838 7.65065C22.1117 7.54049 21.8986 7.515 21.7053 7.58149C21.512 7.64799 21.3597 7.79904 21.2917 7.9918L20.9108 9.07108C20.8083 9.36184 20.9172 9.6848 21.1748 9.85393Z" fill="white"/>
<path d="M8.15821 21.8845H7.59464V17.0799C7.59464 16.7102 7.29485 16.4104 6.92509 16.4104H5.51335C5.29464 16.4104 5.08984 16.5172 4.9645 16.6964L0.995705 22.3757C0.917166 22.4881 0.875 22.6219 0.875 22.7592V23.6528C0.875 24.0225 1.17479 24.3223 1.54455 24.3223H4.96716V26.0511C4.96716 26.4209 5.26696 26.7207 5.63672 26.7207H6.92509C7.29485 26.7207 7.59464 26.4209 7.59464 26.0511V24.3223H8.15821C8.52797 24.3223 8.82776 24.0225 8.82776 23.6528V22.554C8.82776 22.1843 8.52797 21.8845 8.15821 21.8845ZM4.96716 21.8845H4.27919L4.96716 20.9282V21.8845Z" fill="white"/>
<path d="M32.5062 30.5505L27.3944 25.4388C27.34 25.3845 27.283 25.3344 27.2252 25.2859C28.6892 22.2928 28.1813 18.5709 25.6968 16.0862C22.5701 12.9595 17.4826 12.9597 14.3559 16.0862C11.2294 19.2129 11.2294 24.3004 14.3559 27.4271C15.9193 28.9905 17.9729 29.7721 20.0264 29.7721C21.2364 29.7721 22.4457 29.4984 23.5555 28.9556C23.6041 29.0134 23.654 29.0704 23.7083 29.1247L28.8201 34.2364C29.3291 34.7453 29.9961 34.9998 30.6631 34.9998C31.3301 34.9998 31.9973 34.7453 32.5062 34.2364C33.524 33.2187 33.5239 31.5684 32.5062 30.5505ZM16.8131 24.97C15.0414 23.1982 15.0414 20.3154 16.8131 18.5437C17.699 17.6579 18.8625 17.2149 20.0262 17.2149C21.19 17.2149 22.3536 17.6578 23.2394 18.5437C25.0111 20.3154 25.0111 23.1982 23.2394 24.97C21.4678 26.7418 18.5848 26.7418 16.8131 24.97Z" fill="white"/>
</svg>
