<svg width="35" height="35" viewBox="0 0 35 35" fill="none" xmlns="http://www.w3.org/2000/svg">
<path d="M31.0433 1.09547H3.95857C1.77537 1.09547 0 2.87025 0 5.05603V29.9485C0 32.1317 1.77537 33.9046 3.95857 33.9046H31.0432C33.2264 33.9046 34.9999 32.1317 34.9999 29.9485V5.05603C35 2.87025 33.2265 1.09547 31.0433 1.09547ZM22.6328 6.98558C24.744 6.98558 26.4563 8.69792 26.4563 10.8091C26.4563 12.9202 24.7439 14.6326 22.6328 14.6326C20.5209 14.6326 18.8093 12.9202 18.8093 10.8091C18.8093 8.69792 20.5209 6.98558 22.6328 6.98558ZM29.8018 30.2454H17.4996H5.74554C4.68955 30.2454 4.21926 29.4814 4.69529 28.5388L11.2571 15.542C11.7326 14.5995 12.6387 14.5154 13.2804 15.3539L19.8785 23.9766C20.5202 24.8153 21.6418 24.8866 22.3842 24.1353L23.9983 22.5007C24.7401 21.7494 25.833 21.8424 26.4383 22.7072L30.6181 28.6777C31.2223 29.5437 30.8578 30.2454 29.8018 30.2454Z" fill="white"/>
</svg>
