<svg width="35" height="35" viewBox="0 0 35 35" fill="none" xmlns="http://www.w3.org/2000/svg">
<path d="M27.8223 17.5C23.0845 17.5 19.2151 13.8985 18.6974 9.29688H3.07617C1.3799 9.29688 0 10.6768 0 12.373V30.8301C0 32.5263 1.3799 33.9062 3.07617 33.9062H29.873C31.5693 33.9062 32.9492 32.5263 32.9492 30.8301V15.9378C31.4815 16.9225 29.7187 17.5 27.8223 17.5ZM23.7207 19.5508C24.287 19.5508 24.7461 20.0099 24.7461 20.5762C24.7461 21.1425 24.287 21.6016 23.7207 21.6016C23.1544 21.6016 22.6953 21.1425 22.6953 20.5762C22.6953 20.0099 23.1544 19.5508 23.7207 19.5508ZM19.6191 19.5508C20.1854 19.5508 20.6445 20.0099 20.6445 20.5762C20.6445 21.1425 20.1854 21.6016 19.6191 21.6016C19.0529 21.6016 18.5938 21.1425 18.5938 20.5762C18.5938 20.0099 19.0529 19.5508 19.6191 19.5508ZM14.3555 28.7793C14.3555 29.3461 13.8968 29.8047 13.3301 29.8047H5.12695C4.56019 29.8047 4.10156 29.3461 4.10156 28.7793V26.7285C4.10156 24.9618 4.99987 23.4008 6.36398 22.4784C5.60273 21.7334 5.12695 20.698 5.12695 19.5508C5.12695 17.2887 6.96644 15.4492 9.22852 15.4492C11.4906 15.4492 13.3301 17.2887 13.3301 19.5508C13.3301 20.698 12.8543 21.7334 12.093 22.4784C13.4572 23.4008 14.3555 24.9618 14.3555 26.7285V28.7793ZM27.8223 29.8047H19.6191C19.0524 29.8047 18.5938 29.3461 18.5938 28.7793C18.5938 28.2125 19.0524 27.7539 19.6191 27.7539H27.8223C28.389 27.7539 28.8477 28.2125 28.8477 28.7793C28.8477 29.3461 28.389 29.8047 27.8223 29.8047ZM27.8223 25.7031H19.6191C19.0524 25.7031 18.5938 25.2445 18.5938 24.6777C18.5938 24.111 19.0524 23.6523 19.6191 23.6523H27.8223C28.389 23.6523 28.8477 24.111 28.8477 24.6777C28.8477 25.2445 28.389 25.7031 27.8223 25.7031ZM27.8223 21.6016C27.256 21.6016 26.7969 21.1425 26.7969 20.5762C26.7969 20.0099 27.256 19.5508 27.8223 19.5508C28.3886 19.5508 28.8477 20.0099 28.8477 20.5762C28.8477 21.1425 28.3886 21.6016 27.8223 21.6016Z" fill="white"/>
<path d="M9.22852 17.5C8.09799 17.5 7.17773 18.4203 7.17773 19.5508C7.17773 20.6813 8.09799 21.6016 9.22852 21.6016C10.359 21.6016 11.2793 20.6813 11.2793 19.5508C11.2793 18.4203 10.359 17.5 9.22852 17.5Z" fill="white"/>
<path d="M9.22852 23.6523C7.53225 23.6523 6.15234 25.0322 6.15234 26.7285V27.7539H12.3047V26.7285C12.3047 25.0322 10.9248 23.6523 9.22852 23.6523Z" fill="white"/>
<path d="M27.7539 1.09375C23.7965 1.09375 20.6445 4.31409 20.6445 8.27148C20.6445 12.2289 23.8649 15.4492 27.8223 15.4492C31.7797 15.4492 35 12.2289 35 8.27148C35 4.31409 31.7113 1.09375 27.7539 1.09375ZM31.6234 6.94565L27.5218 11.0472C27.1213 11.4477 26.4724 11.4477 26.0719 11.0472L24.0211 8.99644C23.6206 8.59592 23.6206 7.94698 24.0211 7.54646C24.4216 7.14595 25.0705 7.14595 25.471 7.54646L26.7969 8.87229L30.1735 5.49568C30.574 5.09517 31.2229 5.09517 31.6235 5.49568C32.024 5.8962 32.024 6.54514 31.6234 6.94565Z" fill="white"/>
</svg>
