<svg width="35" height="35" viewBox="0 0 35 35" fill="none" xmlns="http://www.w3.org/2000/svg">
<g clip-path="url(#clip0)">
<path d="M12.752 19.3094C12.752 18.8709 12.3964 18.5157 11.9576 18.5157H9.18535C8.74706 18.5157 8.39136 18.8709 8.39136 19.3094V22.0813C8.39136 22.5203 8.74706 22.8756 9.18535 22.8756H11.9576C12.3964 22.8756 12.752 22.5203 12.752 22.0813V19.3094Z" fill="white"/>
<path d="M19.68 19.3094C19.68 18.8709 19.3243 18.5157 18.8864 18.5157H16.1138C15.6755 18.5157 15.3198 18.8709 15.3198 19.3094V22.0813C15.3198 22.5203 15.6755 22.8756 16.1138 22.8756H18.8864C19.3243 22.8756 19.68 22.5203 19.68 22.0813V19.3094Z" fill="white"/>
<path d="M26.6087 19.3094C26.6087 18.8709 26.253 18.5157 25.8147 18.5157H23.0425C22.6037 18.5157 22.248 18.8709 22.248 19.3094V22.0813C22.248 22.5203 22.6037 22.8756 23.0425 22.8756H25.8147C26.253 22.8756 26.6087 22.5203 26.6087 22.0813V19.3094Z" fill="white"/>
<path d="M12.752 26.2382C12.752 25.7991 12.3964 25.4442 11.9576 25.4442H9.18535C8.74706 25.4442 8.39136 25.7991 8.39136 26.2382V29.0096C8.39136 29.4483 8.74706 29.8036 9.18535 29.8036H11.9576C12.3964 29.8036 12.752 29.4483 12.752 29.0096V26.2382Z" fill="white"/>
<path d="M19.68 26.2382C19.68 25.7991 19.3243 25.4442 18.8864 25.4442H16.1138C15.6755 25.4442 15.3198 25.7991 15.3198 26.2382V29.0096C15.3198 29.4483 15.6755 29.8036 16.1138 29.8036H18.8864C19.3243 29.8036 19.68 29.4483 19.68 29.0096V26.2382Z" fill="white"/>
<path d="M26.6087 26.2382C26.6087 25.7991 26.253 25.4442 25.8151 25.4442H23.0425C22.6037 25.4442 22.248 25.7991 22.248 26.2382V29.0096C22.248 29.4483 22.6037 29.8036 23.0425 29.8036H25.8151C26.253 29.8036 26.6087 29.4483 26.6087 29.0096V26.2382Z" fill="white"/>
<path d="M31.5657 3.89715V8.13098C31.5657 10.0446 30.0133 11.5867 28.1 11.5867H25.9136C24.0001 11.5867 22.4271 10.0446 22.4271 8.13098V3.88195H12.5728V8.13098C12.5728 10.0446 10.9999 11.5867 9.08667 11.5867H6.89993C4.98664 11.5867 3.43429 10.0446 3.43429 8.13098V3.89715C1.76205 3.94756 0.387939 5.33128 0.387939 7.03205V31.8443C0.387939 33.577 1.79238 35.0001 3.52513 35.0001H31.4748C33.205 35.0001 34.612 33.5741 34.612 31.8443V7.03205C34.612 5.33128 33.238 3.94756 31.5657 3.89715ZM30.5503 30.2992C30.5503 31.048 29.9431 31.6555 29.194 31.6555H5.74622C4.99711 31.6555 4.38996 31.048 4.38996 30.2992V17.4828C4.38996 16.7336 4.99704 16.1261 5.74622 16.1261H29.1939C29.943 16.1261 30.5502 16.7336 30.5502 17.4828L30.5503 30.2992Z" fill="white"/>
<path d="M6.89224 9.31692H9.05482C9.71123 9.31692 10.2434 8.78549 10.2434 8.12909V1.18827C10.2434 0.531791 9.71123 0 9.05482 0H6.89224C6.23576 0 5.70361 0.531791 5.70361 1.18827V8.12909C5.70361 8.78549 6.23576 9.31692 6.89224 9.31692Z" fill="white"/>
<path d="M25.8858 9.31692H28.0484C28.7044 9.31692 29.2366 8.78549 29.2366 8.12909V1.18827C29.2367 0.531791 28.7044 0 28.0484 0H25.8858C25.2295 0 24.6973 0.531791 24.6973 1.18827V8.12909C24.6973 8.78549 25.2295 9.31692 25.8858 9.31692Z" fill="white"/>
</g>
<defs>
<clipPath id="clip0">
<rect width="35" height="35" fill="white"/>
</clipPath>
</defs>
</svg>
