<svg width="54" height="53" viewBox="0 0 54 53" fill="none" xmlns="http://www.w3.org/2000/svg">
<path d="M0 26.5C0 11.8645 11.8645 0 26.5 0H27.5C42.1355 0 54 11.8645 54 26.5V26.5C54 41.1355 42.1355 53 27.5 53H26.5C11.8645 53 0 41.1355 0 26.5V26.5Z" fill="#FFD400"/>
<path d="M39.9587 17.8968H25.9622L22.9103 15.5024H12V37.5452C12 39.3218 13.4442 40.8051 15.2202 40.8515L39.4549 40.8651H39.4568C40.9246 40.865 42.2181 39.8759 42.6027 38.4591L46.9719 22.3615H39.9587V17.8968ZM15.4701 38.7968L15.2604 38.7967V38.797C14.6056 38.7728 14.0548 38.2024 14.0548 37.5452V17.5572H22.2005L25.2524 19.9516H37.9039V22.3616H21.1714L17.0568 37.5077C16.8573 38.2422 16.2165 38.7558 15.4701 38.7968ZM44.285 24.4164L40.6196 37.9211C40.4774 38.4448 39.9993 38.8104 39.4566 38.8104C39.4564 38.8104 39.4562 38.8104 39.4559 38.8104L18.7479 38.7987C18.8694 38.5628 18.9678 38.3112 19.0398 38.0465L22.7426 24.4164H44.285Z" fill="#ED1C24"/>
<path d="M37.2503 10.0548C39.5443 10.0548 41.4827 11.601 42.0818 13.7054L40.8637 12.7592L39.6033 14.3819L43.3016 17.2546L46.9999 14.3819L45.7394 12.7592L44.2349 13.9278C43.6836 10.5701 40.7617 8 37.2503 8C33.3472 8 30.1716 11.1755 30.1716 15.0786H32.2264C32.2265 12.3085 34.4802 10.0548 37.2503 10.0548Z" fill="#ED1C24"/>
<path d="M24.842 36.7393L24.8441 34.6846L37.2493 34.697L37.2473 36.7518L24.842 36.7393Z" fill="#ED1C24"/>
</svg>
