<svg width="55" height="53" viewBox="0 0 55 53" fill="none" xmlns="http://www.w3.org/2000/svg">
<rect x="0.5" width="54" height="53" rx="26.5" fill="#FFD400"/>
<path d="M28.5938 30.4141C30.2703 30.4141 31.9091 29.9169 33.3031 28.9855C34.697 28.0541 35.7835 26.7302 36.4251 25.1813C37.0666 23.6325 37.2345 21.9281 36.9074 20.2838C36.5804 18.6395 35.7731 17.1291 34.5876 15.9437C33.4021 14.7582 31.8917 13.9509 30.2474 13.6238C28.6032 13.2967 26.8988 13.4646 25.3499 14.1062C23.801 14.7478 22.4772 15.8342 21.5457 17.2282C20.6143 18.6221 20.1172 20.261 20.1172 21.9375C20.1197 24.1848 21.0136 26.3394 22.6027 27.9285C24.1918 29.5177 26.3464 30.4115 28.5938 30.4141ZM28.5938 15.1016C29.9458 15.1016 31.2674 15.5025 32.3916 16.2536C33.5158 17.0048 34.3919 18.0724 34.9093 19.3215C35.4267 20.5706 35.5621 21.9451 35.2983 23.2711C35.0346 24.5972 34.3835 25.8152 33.4275 26.7712C32.4715 27.7273 31.2534 28.3783 29.9274 28.6421C28.6013 28.9059 27.2269 28.7705 25.9778 28.2531C24.7286 27.7357 23.661 26.8595 22.9099 25.7353C22.1587 24.6112 21.7578 23.2895 21.7578 21.9375C21.7599 20.1251 22.4807 18.3876 23.7623 17.106C25.0438 15.8245 26.7814 15.1036 28.5938 15.1016Z" fill="#ED1C24"/>
<path d="M29.1406 24.3984H27.5C27.4275 24.3984 27.3579 24.3696 27.3067 24.3183C27.2554 24.2671 27.2266 24.1975 27.2266 24.125C27.2266 23.9074 27.1401 23.6988 26.9863 23.545C26.8325 23.3911 26.6238 23.3047 26.4062 23.3047C26.1887 23.3047 25.98 23.3911 25.8262 23.545C25.6724 23.6988 25.5859 23.9074 25.5859 24.125C25.5865 24.6325 25.7884 25.119 26.1472 25.4778C26.506 25.8366 26.9925 26.0385 27.5 26.0391H27.7734V27.4062C27.7734 27.6238 27.8599 27.8325 28.0137 27.9863C28.1675 28.1401 28.3762 28.2266 28.5938 28.2266C28.8113 28.2266 29.02 28.1401 29.1738 27.9863C29.3276 27.8325 29.4141 27.6238 29.4141 27.4062V26.0235C30.0385 25.9529 30.6123 25.646 31.0178 25.1659C31.4232 24.6857 31.6296 24.0687 31.5947 23.4412C31.5597 22.8137 31.286 22.2234 30.8297 21.7913C30.3734 21.3592 29.7691 21.118 29.1406 21.1172H28.0469C27.8293 21.1172 27.6207 21.0308 27.4668 20.8769C27.313 20.7231 27.2266 20.5144 27.2266 20.2969C27.2266 20.0793 27.313 19.8707 27.4668 19.7168C27.6207 19.563 27.8293 19.4766 28.0469 19.4766H29.6875C29.76 19.4766 29.8296 19.5054 29.8808 19.5567C29.9321 19.6079 29.9609 19.6775 29.9609 19.75C29.9609 19.9676 30.0474 20.1762 30.2012 20.33C30.355 20.4839 30.5637 20.5703 30.7812 20.5703C30.9988 20.5703 31.2075 20.4839 31.3613 20.33C31.5151 20.1762 31.6016 19.9676 31.6016 19.75C31.601 19.2425 31.3991 18.756 31.0403 18.3972C30.6815 18.0384 30.195 17.8365 29.6875 17.8359H29.4141V16.4688C29.4141 16.2512 29.3276 16.0425 29.1738 15.8887C29.02 15.7349 28.8113 15.6484 28.5938 15.6484C28.3762 15.6484 28.1675 15.7349 28.0137 15.8887C27.8599 16.0425 27.7734 16.2512 27.7734 16.4688V17.8515C27.149 17.9221 26.5752 18.229 26.1697 18.7091C25.7643 19.1893 25.5579 19.8063 25.5928 20.4338C25.6278 21.0613 25.9015 21.6516 26.3578 22.0837C26.8141 22.5158 27.4184 22.757 28.0469 22.7578H29.1406C29.3582 22.7578 29.5668 22.8442 29.7207 22.9981C29.8745 23.1519 29.9609 23.3606 29.9609 23.5781C29.9609 23.7957 29.8745 24.0043 29.7207 24.1582C29.5668 24.312 29.3582 24.3984 29.1406 24.3984Z" fill="#ED1C24"/>
<path d="M38.8043 35.4225C38.5264 35.2835 36.0455 34.1068 34.5762 35.5762C34.5258 35.6265 34.4756 35.6792 34.4258 35.7334C33.1092 35.383 32.011 35.5738 31.295 36.2895C30.4218 37.1626 29.5866 38.6006 29.1764 39.3596L27.6725 39.6604L23.6468 36.9766H26.4062C28.0556 36.9766 29.3359 36.2329 30.011 34.8825C30.3187 34.2567 30.4882 33.5721 30.5078 32.875C30.5078 32.6574 30.4214 32.4488 30.2675 32.295C30.1137 32.1411 29.9051 32.0547 29.6875 32.0547H11.0938C10.8762 32.0547 10.6675 32.1411 10.5137 32.295C10.3599 32.4488 10.2734 32.6574 10.2734 32.875C10.2734 33.0926 10.3599 33.3012 10.5137 33.455C10.6675 33.6089 10.8762 33.6953 11.0938 33.6953H28.7236C28.672 33.8662 28.6047 34.0319 28.5227 34.1904C28.1194 34.9613 27.4272 35.3359 26.4062 35.3359H20.9375C20.1499 35.3104 19.8133 36.4234 20.4825 36.8387L27.045 41.2137C27.1346 41.2735 27.2352 41.315 27.3408 41.336C27.4465 41.3569 27.5553 41.3568 27.6609 41.3356L33.1297 40.2419C33.2521 40.2174 33.3674 40.1652 33.4666 40.0894C33.5658 40.0136 33.6465 39.9161 33.7023 39.8044C33.7113 39.7864 34.4912 38.2381 35.3398 37.1833C35.3433 37.1788 35.3471 37.1745 35.3506 37.1697C35.4715 37.0185 35.6003 36.8737 35.7363 36.7359C36.0648 36.4074 36.7243 36.4581 37.2945 36.6074L34.5913 42.0146L26.395 44.0637L16.7402 41.918C16.6819 41.905 16.6223 41.8985 16.5625 41.8984H11.0938C10.8762 41.8984 10.6675 41.9849 10.5137 42.1387C10.3599 42.2925 10.2734 42.5012 10.2734 42.7187C10.2734 42.9363 10.3599 43.145 10.5137 43.2988C10.6675 43.4526 10.8762 43.5391 11.0938 43.5391H16.4725L26.2285 45.707C26.3528 45.7347 26.4819 45.733 26.6054 45.7021L35.3554 43.5146C35.4703 43.4859 35.5775 43.4327 35.6698 43.3587C35.7621 43.2846 35.8373 43.1915 35.8902 43.0856L39.1715 36.5231C39.2675 36.3283 39.2827 36.1035 39.214 35.8974C39.1453 35.6914 38.9981 35.5207 38.8043 35.4225ZM32.4233 38.71L31.3309 38.9288C31.697 38.3554 32.0933 37.8114 32.455 37.4496C32.6601 37.2445 32.9814 37.1911 33.3101 37.2067C32.9277 37.7952 32.6117 38.3589 32.4233 38.71Z" fill="#ED1C24"/>
<path d="M44.4863 25.7325C44.3325 25.5786 44.1238 25.4922 43.9063 25.4922C43.6887 25.4922 43.4801 25.5786 43.3262 25.7325L42.5391 26.5196V23.0312C42.5391 22.8137 42.4527 22.605 42.2988 22.4512C42.145 22.2974 41.9363 22.2109 41.7188 22.2109C41.5012 22.2109 41.2926 22.2974 41.1387 22.4512C40.9849 22.605 40.8985 22.8137 40.8985 23.0312V26.5196L40.1113 25.7325C39.957 25.5807 39.7491 25.496 39.5327 25.4969C39.3163 25.4978 39.109 25.5842 38.956 25.7372C38.8029 25.8902 38.7166 26.0975 38.7157 26.3139C38.7148 26.5303 38.7995 26.7383 38.9513 26.8925L41.1388 29.08C41.2926 29.2338 41.5012 29.3203 41.7188 29.3203C41.9363 29.3203 42.145 29.2338 42.2988 29.08L44.4863 26.8925C44.6401 26.7387 44.7265 26.53 44.7265 26.3125C44.7265 26.0949 44.6401 25.8863 44.4863 25.7325Z" fill="#ED1C24"/>
<path d="M41.7188 20.5703C41.9363 20.5703 42.145 20.4839 42.2988 20.33C42.4526 20.1762 42.5391 19.9676 42.5391 19.75V18.6562C42.5391 18.4387 42.4526 18.23 42.2988 18.0762C42.145 17.9224 41.9363 17.8359 41.7188 17.8359C41.5012 17.8359 41.2925 17.9224 41.1387 18.0762C40.9849 18.23 40.8984 18.4387 40.8984 18.6562V19.75C40.8984 19.9676 40.9849 20.1762 41.1387 20.33C41.2925 20.4839 41.5012 20.5703 41.7188 20.5703Z" fill="#ED1C24"/>
<path d="M14.8888 29.08C15.0426 29.2338 15.2512 29.3203 15.4688 29.3203C15.6863 29.3203 15.895 29.2338 16.0488 29.08L18.2363 26.8925C18.3881 26.7383 18.4728 26.5303 18.4719 26.3139C18.471 26.0975 18.3846 25.8902 18.2316 25.7372C18.0786 25.5842 17.8713 25.4978 17.6549 25.4969C17.4385 25.496 17.2305 25.5807 17.0763 25.7325L16.2891 26.5196V23.0312C16.2891 22.8137 16.2027 22.605 16.0488 22.4512C15.895 22.2974 15.6863 22.2109 15.4688 22.2109C15.2512 22.2109 15.0426 22.2974 14.8887 22.4512C14.7349 22.605 14.6485 22.8137 14.6485 23.0312V26.5196L13.8613 25.7325C13.7071 25.5807 13.4991 25.496 13.2827 25.4969C13.0663 25.4978 12.859 25.5842 12.706 25.7372C12.5529 25.8902 12.4666 26.0975 12.4657 26.3139C12.4648 26.5303 12.5495 26.7383 12.7013 26.8925L14.8888 29.08Z" fill="#ED1C24"/>
<path d="M15.4688 20.5703C15.6863 20.5703 15.895 20.4839 16.0488 20.33C16.2026 20.1762 16.2891 19.9676 16.2891 19.75V18.6562C16.2891 18.4387 16.2026 18.23 16.0488 18.0762C15.895 17.9224 15.6863 17.8359 15.4688 17.8359C15.2512 17.8359 15.0425 17.9224 14.8887 18.0762C14.7349 18.23 14.6484 18.4387 14.6484 18.6562V19.75C14.6484 19.9676 14.7349 20.1762 14.8887 20.33C15.0425 20.4839 15.2512 20.5703 15.4688 20.5703Z" fill="#ED1C24"/>
</svg>
