<svg width="55" height="53" viewBox="0 0 55 53" fill="none" xmlns="http://www.w3.org/2000/svg">
<rect x="0.5" width="54" height="53" rx="26.5" fill="#FFD400"/>
<path d="M43.9156 26.9762L33.5933 10.4332C32.2718 8.31516 29.9938 7.05078 27.5 7.05078C25.0062 7.05078 22.7282 8.31516 21.4067 10.4332L11.0844 26.9762C10.3749 28.1132 10 29.4257 10 30.7715C10 34.7294 13.2198 37.9492 17.1777 37.9492H37.8223C41.7802 37.9492 45 34.7294 45 30.7715C45 29.4257 44.6251 28.1132 43.9156 26.9762ZM37.8223 35.8984H17.1777C14.3507 35.8984 12.0508 33.5985 12.0508 30.7715C12.0508 29.8099 12.3183 28.8729 12.8244 28.0619L23.1466 11.519C24.0911 10.0052 25.7184 9.10156 27.5 9.10156C29.2816 9.10156 30.9089 10.0052 31.8534 11.519L42.1756 28.0619C42.6817 28.8729 42.9492 29.8099 42.9492 30.7715C42.9492 33.5985 40.6493 35.8984 37.8223 35.8984Z" fill="#ED1C24"/>
<path d="M30.1137 12.6047C29.5462 11.6952 28.5692 11.1523 27.5 11.1523C26.4308 11.1523 25.4538 11.6952 24.8863 12.6044L14.5643 29.1474C14.2572 29.6393 14.1016 30.1859 14.1016 30.7715C14.1016 32.4677 15.4816 33.8477 17.1777 33.8477H37.8223C39.5184 33.8477 40.8984 32.4677 40.8984 30.7715C40.8984 30.1859 40.7428 29.6395 40.4359 29.1474L30.1137 12.6047ZM37.8223 31.7969H17.1777C16.6124 31.7969 16.1523 31.3368 16.1523 30.7715C16.1523 30.5728 16.202 30.3968 16.304 30.2329L26.6263 13.6902C26.8167 13.3852 27.1432 13.2031 27.5 13.2031C27.8568 13.2031 28.1836 13.3852 28.3737 13.6905L38.696 30.2332C38.798 30.3968 38.8477 30.5728 38.8477 30.7715C38.8477 31.3368 38.3876 31.7969 37.8223 31.7969Z" fill="#ED1C24"/>
<path d="M26.4746 18.3301H28.5254V25.5762H26.4746V18.3301Z" fill="#ED1C24"/>
<path d="M26.4746 27.627H28.5254V29.6777H26.4746V27.627Z" fill="#ED1C24"/>
</svg>
