<svg width="55" height="53" viewBox="0 0 55 53" fill="none" xmlns="http://www.w3.org/2000/svg">
<path d="M0.5 26.5C0.5 11.8645 12.3645 0 27 0H28C42.6355 0 54.5 11.8645 54.5 26.5C54.5 41.1355 42.6355 53 28 53H27C12.3645 53 0.5 41.1355 0.5 26.5Z" fill="#FFD400"/>
<path d="M38.9515 30.5112C37.0937 28.6533 34.8636 27.3037 32.4299 26.5292C35.4102 24.8157 37.4215 21.599 37.4215 17.9215C37.4216 12.4508 32.9709 8 27.5002 8C22.0294 8 17.5787 12.4508 17.5787 17.9215C17.5787 21.5991 19.59 24.8157 22.5703 26.5292C20.1366 27.3036 17.9065 28.6533 16.0487 30.5112C12.9899 33.57 11.3054 37.6367 11.3054 41.9624C11.3054 42.5354 11.77 43 12.343 43H42.6571C43.2301 43 43.6946 42.5354 43.6946 41.9624C43.6948 37.6367 42.0103 33.5699 38.9515 30.5112ZM19.6538 17.9215C19.6538 13.595 23.1737 10.0751 27.5002 10.0751C31.8266 10.0751 35.3465 13.595 35.3465 17.9215C35.3465 22.2479 31.8266 25.7678 27.5002 25.7678C23.1737 25.7678 19.6538 22.2479 19.6538 17.9215ZM13.4183 40.9249C13.9511 33.6217 20.0634 27.8429 27.5002 27.8429C34.9369 27.8429 41.0492 33.6217 41.582 40.9249H13.4183Z" fill="#ED1C24"/>
<path d="M27.5001 21.3047C26.9574 21.3047 26.4375 21.7819 26.4625 22.3422C26.4877 22.9043 26.9184 23.3798 27.5001 23.3798C28.0428 23.3798 28.5627 22.9026 28.5377 22.3422C28.5124 21.7801 28.0818 21.3047 27.5001 21.3047Z" fill="#ED1C24"/>
<path d="M27.4999 12.4632C25.7239 12.4632 24.2791 13.9081 24.2791 15.6841C24.2791 16.2571 24.7436 16.7217 25.3166 16.7217C25.8896 16.7217 26.3542 16.2571 26.3542 15.6841C26.3542 15.0524 26.8682 14.5383 27.4999 14.5383C28.1317 14.5383 28.6457 15.0523 28.6457 15.6841C28.6457 16.316 28.1317 16.83 27.4999 16.83C26.927 16.83 26.4624 17.2945 26.4624 17.8675V19.4372C26.4624 20.0102 26.927 20.4748 27.4999 20.4748C28.0729 20.4748 28.5375 20.0102 28.5375 19.4372V18.7336C29.8061 18.3009 30.7208 17.0973 30.7208 15.6841C30.7209 13.9081 29.276 12.4632 27.4999 12.4632Z" fill="#ED1C24"/>
</svg>
