<svg width="108" height="125" viewBox="0 0 108 125" fill="none" xmlns="http://www.w3.org/2000/svg">
<path d="M15.4265 94.5588C15.4265 103.116 7.68755 110.309 -2.19119 110.309C-12.0699 110.309 -19.8088 103.116 -19.8088 94.5588C-19.8088 86.0017 -12.0699 78.8088 -2.19119 78.8088C7.68755 78.8088 15.4265 86.0017 15.4265 94.5588Z" stroke="#ED1C24" stroke-width="3"/>
<path d="M35.5 90.5C35.5 108.811 21.5377 123.5 4.5 123.5C-12.5377 123.5 -26.5 108.811 -26.5 90.5C-26.5 72.189 -12.5377 57.5 4.5 57.5C21.5377 57.5 35.5 72.189 35.5 90.5Z" stroke="#ED1C24" stroke-width="3"/>
<path d="M98.2962 20.0909V22.3636M98.2962 22.3636L25.0001 36M98.2962 22.3636V16.904L107 14.6364M25.0001 36L107 0.999999V14.6364M25.0001 36L107 14.6364" stroke="white"/>
</svg>
