<svg width="35" height="33" viewBox="0 0 35 33" fill="none" xmlns="http://www.w3.org/2000/svg">
<path d="M27.9587 9.89678H13.9622L10.9103 7.50241H0V29.5452C0 31.3218 1.44424 32.8051 3.22018 32.8515L27.4549 32.8651H27.4568C28.9246 32.865 30.2181 31.8759 30.6027 30.4591L34.9719 14.3615H27.9587V9.89678ZM3.47011 30.7968L3.26039 30.7967V30.797C2.6056 30.7728 2.05478 30.2024 2.05478 29.5452V9.55719H10.2005L13.2524 11.9516H25.9039V14.3616H9.17144L5.05681 29.5077C4.85729 30.2422 4.21647 30.7558 3.47011 30.7968ZM32.285 16.4164L28.6196 29.9211C28.4774 30.4448 27.9993 30.8104 27.4566 30.8104C27.4564 30.8104 27.4562 30.8104 27.4559 30.8104L6.74789 30.7987C6.8694 30.5628 6.96782 30.3112 7.03981 30.0465L10.7426 16.4164H32.285Z" fill="#ED1C24"/>
<path d="M25.2503 2.05485C27.5443 2.05485 29.4827 3.601 30.0818 5.70543L28.8637 4.75921L27.6033 6.38187L31.3016 9.25458L34.9999 6.38187L33.7394 4.75921L32.2349 5.92783C31.6836 2.57012 28.7617 0 25.2503 0C21.3472 0 18.1716 3.17545 18.1716 7.07864H20.2264C20.2265 4.30853 22.4802 2.05485 25.2503 2.05485Z" fill="#ED1C24"/>
<path d="M12.842 28.7393L12.8441 26.6846L25.2493 26.697L25.2473 28.7518L12.842 28.7393Z" fill="#ED1C24"/>
</svg>
