<svg width="54" height="53" viewBox="0 0 54 53" fill="none" xmlns="http://www.w3.org/2000/svg">
<path d="M0 26.5C0 11.8645 11.8645 0 26.5 0H27.5C42.1355 0 54 11.8645 54 26.5C54 41.1355 42.1355 53 27.5 53H26.5C11.8645 53 0 41.1355 0 26.5Z" fill="#FFD400"/>
<path d="M20.6667 28.25H19.5V29.4167H20.6667V28.25Z" fill="#ED1C24"/>
<path d="M20.6667 30.5833H19.5V31.75H20.6667V30.5833Z" fill="#ED1C24"/>
<path d="M20.6667 32.9167H19.5V34.0833H20.6667V32.9167Z" fill="#ED1C24"/>
<path d="M20.6667 25.9167H19.5V27.0833H20.6667V25.9167Z" fill="#ED1C24"/>
<path d="M20.6667 23.5833H19.5V24.75H20.6667V23.5833Z" fill="#ED1C24"/>
<path d="M20.6667 21.25H19.5V22.4167H20.6667V21.25Z" fill="#ED1C24"/>
<path d="M20.6667 18.9167H19.5V20.0833H20.6667V18.9167Z" fill="#ED1C24"/>
<path d="M12.5 18.9167H11.3334V20.0833H12.5V18.9167Z" fill="#ED1C24"/>
<path d="M41.6667 18.9167H40.5V20.0833H41.6667V18.9167Z" fill="#ED1C24"/>
<path d="M41.6667 32.9167H40.5V34.0833H41.6667V32.9167Z" fill="#ED1C24"/>
<path d="M12.5 32.9167H11.3334V34.0833H12.5V32.9167Z" fill="#ED1C24"/>
<path d="M43.4167 23.5833C43.7388 23.5833 44 23.3221 44 23V17.1667C44 16.8445 43.7388 16.5833 43.4167 16.5833H9.58333C9.26119 16.5833 9 16.8445 9 17.1667V23C9 23.3221 9.26119 23.5833 9.58333 23.5833C11.1941 23.5833 12.5 24.8892 12.5 26.5C12.5 28.1108 11.1941 29.4167 9.58333 29.4167C9.26119 29.4167 9 29.6779 9 30V35.8333C9 36.1555 9.26119 36.4167 9.58333 36.4167H43.4167C43.7388 36.4167 44 36.1555 44 35.8333V30C44 29.6779 43.7388 29.4167 43.4167 29.4167C41.8059 29.4167 40.5 28.1108 40.5 26.5C40.5 24.8892 41.8059 23.5833 43.4167 23.5833ZM39.3715 27.0801C39.6291 28.8746 41.0389 30.2844 42.8333 30.5419V35.25H10.1667V30.5419C12.3989 30.2215 13.9489 28.1522 13.6285 25.9199C13.3709 24.1255 11.9611 22.7156 10.1667 22.4581V17.75H42.8333V22.4581C40.6011 22.7785 39.0511 24.8478 39.3715 27.0801Z" fill="#ED1C24"/>
<path d="M26.5 20.6667C25.2113 20.6667 24.1666 21.7113 24.1666 23C24.1666 24.2887 25.2113 25.3333 26.5 25.3333C27.7886 25.3333 28.8333 24.2887 28.8333 23C28.8333 21.7113 27.7886 20.6667 26.5 20.6667ZM26.5 24.1667C25.8556 24.1667 25.3333 23.6444 25.3333 23C25.3333 22.3556 25.8556 21.8333 26.5 21.8333C27.1443 21.8333 27.6666 22.3556 27.6666 23C27.6666 23.6444 27.1443 24.1667 26.5 24.1667Z" fill="#ED1C24"/>
<path d="M33.5 27.6667C32.2113 27.6667 31.1666 28.7113 31.1666 30C31.1666 31.2887 32.2113 32.3333 33.5 32.3333C34.7886 32.3333 35.8333 31.2887 35.8333 30C35.8333 28.7113 34.7886 27.6667 33.5 27.6667ZM33.5 31.1667C32.8556 31.1667 32.3333 30.6444 32.3333 30C32.3333 29.3556 32.8556 28.8333 33.5 28.8333C34.1443 28.8333 34.6666 29.3556 34.6666 30C34.6666 30.6444 34.1443 31.1667 33.5 31.1667Z" fill="#ED1C24"/>
<path d="M34.254 21.4197L24.9209 30.7528L25.7458 31.5778L35.079 22.2447L34.254 21.4197Z" fill="#ED1C24"/>
</svg>
