<svg width="45" height="45" viewBox="0 0 45 45" fill="none" xmlns="http://www.w3.org/2000/svg">
<path d="M45 45L44.9989 5.26333H39.7345L39.7344 0H0V39.7355H5.26447V45H45ZM42.3667 7.89557L42.3677 42.3677H7.8968V39.7354H31.1106C33.4143 39.7354 35.5802 38.8383 37.2093 37.2092C38.8383 35.5801 39.7354 33.4142 39.7354 31.1104L39.7347 7.89548H42.3667V7.89557ZM32.2285 36.9985C32.5087 36.3955 32.6663 35.7244 32.6663 35.0168V32.7154H35.0996C35.7607 32.7154 36.3983 32.5773 36.9817 32.3169C36.7497 33.4575 36.1898 34.506 35.3479 35.3479C34.4843 36.2116 33.4033 36.778 32.2285 36.9985ZM37.1022 2.63109L37.1024 7.89557H2.63224V2.63109H37.1022ZM2.63224 10.5279H37.1024L37.1029 28.0749C37.084 28.6222 36.8732 29.1251 36.5024 29.5013C36.1324 29.8766 35.6342 30.0832 35.0995 30.0832H30.034V35.0169C30.034 36.1673 29.0987 37.1033 27.949 37.1033H2.63224V10.5279Z" fill="#ED1C24"/>
<path d="M9.12415 14.8581H11.7566V17.4903H9.12415V14.8581Z" fill="#ED1C24"/>
<path d="M14.5907 14.8581H29.7881V17.4903H14.5907V14.8581Z" fill="#ED1C24"/>
<path d="M9.12415 20.1226H11.7566V22.7548H9.12415V20.1226Z" fill="#ED1C24"/>
<path d="M14.5907 20.1226H29.7881V22.7548H14.5907V20.1226Z" fill="#ED1C24"/>
<path d="M9.12415 25.3871H11.7566V28.0194H9.12415V25.3871Z" fill="#ED1C24"/>
<path d="M14.5907 25.3871H29.7881V28.0194H14.5907V25.3871Z" fill="#ED1C24"/>
</svg>
