<svg width="55" height="53" viewBox="0 0 55 53" fill="none" xmlns="http://www.w3.org/2000/svg">
<rect x="0.5" width="54" height="53" rx="26.5" fill="#FFD400"/>
<path d="M13.1094 44.7188H14.2031V45.8125H13.1094V44.7188Z" fill="#ED1C24"/>
<path d="M30.6094 35.4219C31.2126 35.4219 31.7031 35.9124 31.7031 36.5156H32.7969C32.7969 35.4995 32.0974 34.6502 31.1562 34.4058V33.2344H30.0625V34.4058C29.1213 34.6502 28.4219 35.4995 28.4219 36.5156C28.4219 37.722 29.403 38.7031 30.6094 38.7031C31.2126 38.7031 31.7031 39.1937 31.7031 39.7969C31.7031 40.4001 31.2126 40.8906 30.6094 40.8906C30.0062 40.8906 29.5156 40.4001 29.5156 39.7969H28.4219C28.4219 40.813 29.1213 41.6623 30.0625 41.9067V43.0781H31.1562V41.9067C32.0974 41.6623 32.7969 40.813 32.7969 39.7969C32.7969 38.5905 31.8158 37.6094 30.6094 37.6094C30.0062 37.6094 29.5156 37.1188 29.5156 36.5156C29.5156 35.9124 30.0062 35.4219 30.6094 35.4219Z" fill="#ED1C24"/>
<path d="M18.5781 28.3125H8.73438C8.43195 28.3125 8.1875 28.5575 8.1875 28.8594V43.625C8.1875 43.9269 8.43195 44.1719 8.73438 44.1719H18.5781C18.8805 44.1719 19.125 43.9269 19.125 43.625V28.8594C19.125 28.5575 18.8805 28.3125 18.5781 28.3125ZM18.0312 43.0781H9.28125V29.4062H18.0312V43.0781Z" fill="#ED1C24"/>
<path d="M38.8125 13.5469H16.9375C16.033 13.5469 15.2969 14.283 15.2969 15.1875V26.6719H8.1875C7.28297 26.6719 6.54688 27.408 6.54688 28.3125V45.8125C6.54688 46.717 7.28297 47.4531 8.1875 47.4531H19.125C20.0295 47.4531 20.7656 46.717 20.7656 45.8125V29.9531H38.8125C39.717 29.9531 40.4531 29.217 40.4531 28.3125V15.1875C40.4531 14.283 39.717 13.5469 38.8125 13.5469ZM16.9375 14.6406H38.8125C39.1144 14.6406 39.3594 14.8862 39.3594 15.1875V15.7344H16.3906V15.1875C16.3906 14.8862 16.6356 14.6406 16.9375 14.6406ZM39.3594 16.8281V19.0156H16.3906V16.8281H39.3594ZM19.6719 45.8125C19.6719 46.1138 19.4269 46.3594 19.125 46.3594H8.1875C7.88563 46.3594 7.64062 46.1138 7.64062 45.8125V28.3125C7.64062 28.0112 7.88563 27.7656 8.1875 27.7656H19.125C19.4269 27.7656 19.6719 28.0112 19.6719 28.3125V45.8125ZM38.8125 28.8594H20.7656V28.3125C20.7656 27.408 20.0295 26.6719 19.125 26.6719H16.3906V20.1094H39.3594V28.3125C39.3594 28.6138 39.1144 28.8594 38.8125 28.8594Z" fill="#ED1C24"/>
<path d="M23.5 21.2031H18.0312C17.7288 21.2031 17.4844 21.4481 17.4844 21.75V25.0312C17.4844 25.3331 17.7288 25.5781 18.0312 25.5781H23.5C23.8024 25.5781 24.0469 25.3331 24.0469 25.0312V21.75C24.0469 21.4481 23.8024 21.2031 23.5 21.2031ZM19.6719 22.2969V22.8438H18.5781V22.2969H19.6719ZM18.5781 23.9375H20.2188C20.5212 23.9375 20.7656 23.6925 20.7656 23.3906V22.2969H21.3125V24.4844H18.5781V23.9375ZM22.9531 24.4844H22.4062V22.2969H22.9531V24.4844Z" fill="#ED1C24"/>
<path d="M38.2656 20.6562H31.7031C31.4007 20.6562 31.1562 20.9013 31.1562 21.2031V27.7656C31.1562 28.0675 31.4007 28.3125 31.7031 28.3125H38.2656C38.568 28.3125 38.8125 28.0675 38.8125 27.7656V21.2031C38.8125 20.9013 38.568 20.6562 38.2656 20.6562ZM32.25 21.75H34.4375V23.9375H32.25V21.75ZM32.25 27.2188V25.0312H34.9844C35.2868 25.0312 35.5312 24.7863 35.5312 24.4844V21.75H36.0781V22.8438H37.1719V21.75H37.7188V25.0312H37.1719V23.9375H36.0781V25.5781C36.0781 25.88 36.3226 26.125 36.625 26.125H37.7188V27.2188H32.25Z" fill="#ED1C24"/>
<path d="M32.7969 22.2969H33.8906V23.3906H32.7969V22.2969Z" fill="#ED1C24"/>
<path d="M32.7969 25.5781H35.5312V26.6719H32.7969V25.5781Z" fill="#ED1C24"/>
<path d="M33.3438 37.6094H34.4375V38.7031H33.3438V37.6094Z" fill="#ED1C24"/>
<path d="M35.5312 37.6094H36.625V38.7031H35.5312V37.6094Z" fill="#ED1C24"/>
<path d="M35.5312 35.4219H36.625V36.5156H35.5312V35.4219Z" fill="#ED1C24"/>
<path d="M35.5312 33.2344H36.625V34.3281H35.5312V33.2344Z" fill="#ED1C24"/>
<path d="M35.5312 31.0469H36.625V32.1406H35.5312V31.0469Z" fill="#ED1C24"/>
<path d="M26.2344 37.6094H27.3281V38.7031H26.2344V37.6094Z" fill="#ED1C24"/>
<path d="M24.0469 37.6094H25.1406V38.7031H24.0469V37.6094Z" fill="#ED1C24"/>
<path d="M21.8594 37.6094H22.9531V38.7031H21.8594V37.6094Z" fill="#ED1C24"/>
</svg>
