<svg width="45" height="45" viewBox="0 0 45 45" fill="none" xmlns="http://www.w3.org/2000/svg">
<g clip-path="url(#clip0)">
<path d="M22.4999 11.8233L6.45089 25.054C6.45089 25.0727 6.44619 25.1002 6.43681 25.1376C6.42762 25.1748 6.42273 25.2018 6.42273 25.2209V38.6184C6.42273 39.1022 6.59958 39.5214 6.95319 39.8744C7.3067 40.2276 7.72532 40.4053 8.20915 40.4053H18.9269V29.687H26.0731V40.4057H36.7907C37.2745 40.4057 37.6937 40.2284 38.0467 39.8744C38.4003 39.5218 38.5778 39.1023 38.5778 38.6184V25.2209C38.5778 25.1466 38.5676 25.0905 38.5496 25.054L22.4999 11.8233Z" fill="#ED1C24"/>
<path d="M44.689 22.0395L38.5766 16.9595V5.57141C38.5766 5.31107 38.4929 5.09697 38.325 4.9294C38.1584 4.76203 37.9443 4.67835 37.6834 4.67835H32.3244C32.0638 4.67835 31.8498 4.76203 31.6821 4.9294C31.5148 5.09697 31.4312 5.31116 31.4312 5.57141V11.0142L24.6209 5.31996C24.0261 4.83613 23.3189 4.59427 22.5 4.59427C21.6813 4.59427 20.9742 4.83613 20.3788 5.31996L0.309548 22.0395C0.123505 22.1881 0.0215385 22.3881 0.00257256 22.6394C-0.0162957 22.8904 0.0487166 23.1097 0.197805 23.2956L1.9283 25.3612C2.07739 25.5285 2.27253 25.6309 2.51449 25.6683C2.73788 25.6871 2.96126 25.6218 3.18465 25.473L22.4994 9.36735L41.8144 25.4729C41.9636 25.6027 42.1587 25.6676 42.4006 25.6676H42.4845C42.7261 25.6308 42.9208 25.5278 43.0707 25.3608L44.8014 23.2955C44.9502 23.1092 45.0154 22.8903 44.996 22.639C44.977 22.3884 44.8746 22.1884 44.689 22.0395Z" fill="#ED1C24"/>
</g>
<defs>
<clipPath id="clip0">
<rect width="45" height="45" fill="white"/>
</clipPath>
</defs>
</svg>
