<svg width="55" height="53" viewBox="0 0 55 53" fill="none" xmlns="http://www.w3.org/2000/svg">
<path d="M0.5 26.5C0.5 11.8645 12.3645 0 27 0H28C42.6355 0 54.5 11.8645 54.5 26.5C54.5 41.1355 42.6355 53 28 53H27C12.3645 53 0.5 41.1355 0.5 26.5Z" fill="#FFD400"/>
<path d="M38.9515 31.5112C37.0937 29.6533 34.8636 28.3037 32.4299 27.5292C35.4102 25.8157 37.4215 22.599 37.4215 18.9215C37.4216 13.4508 32.9709 9 27.5002 9C22.0294 9 17.5787 13.4508 17.5787 18.9215C17.5787 22.5991 19.59 25.8157 22.5703 27.5292C20.1366 28.3036 17.9065 29.6533 16.0487 31.5112C12.9899 34.57 11.3054 38.6367 11.3054 42.9624C11.3054 43.5354 11.77 44 12.343 44H42.6571C43.2301 44 43.6946 43.5354 43.6946 42.9624C43.6948 38.6367 42.0103 34.5699 38.9515 31.5112ZM19.6538 18.9215C19.6538 14.595 23.1737 11.0751 27.5002 11.0751C31.8266 11.0751 35.3465 14.595 35.3465 18.9215C35.3465 23.2479 31.8266 26.7678 27.5002 26.7678C23.1737 26.7678 19.6538 23.2479 19.6538 18.9215ZM13.4183 41.9249C13.9511 34.6217 20.0634 28.8429 27.5002 28.8429C34.9369 28.8429 41.0492 34.6217 41.582 41.9249H13.4183Z" fill="#ED1C24"/>
<path d="M27.5001 22.3047C26.9574 22.3047 26.4375 22.7819 26.4625 23.3422C26.4877 23.9043 26.9184 24.3798 27.5001 24.3798C28.0428 24.3798 28.5627 23.9026 28.5377 23.3422C28.5124 22.7801 28.0818 22.3047 27.5001 22.3047Z" fill="#ED1C24"/>
<path d="M27.4999 13.4632C25.7239 13.4632 24.2791 14.9081 24.2791 16.6841C24.2791 17.2571 24.7436 17.7217 25.3166 17.7217C25.8896 17.7217 26.3542 17.2571 26.3542 16.6841C26.3542 16.0524 26.8682 15.5383 27.4999 15.5383C28.1317 15.5383 28.6457 16.0523 28.6457 16.6841C28.6457 17.316 28.1317 17.83 27.4999 17.83C26.927 17.83 26.4624 18.2945 26.4624 18.8675V20.4372C26.4624 21.0102 26.927 21.4748 27.4999 21.4748C28.0729 21.4748 28.5375 21.0102 28.5375 20.4372V19.7336C29.8061 19.3009 30.7208 18.0973 30.7208 16.6841C30.7209 14.9081 29.276 13.4632 27.4999 13.4632Z" fill="#ED1C24"/>
</svg>
