<svg width="14" height="15" viewBox="0 0 14 15" fill="none" xmlns="http://www.w3.org/2000/svg">
<path d="M11.1548 1.60161C12.7941 3.05676 13.7112 4.37356 13.906 5.55201C14.1115 6.71849 13.853 7.70857 13.1308 8.52225C12.2173 9.55132 11.0311 9.99593 9.57203 9.8561C9.01394 9.80998 8.40529 9.67619 7.74608 9.45475L7.34738 9.32548C7.23175 9.28702 6.92494 9.46396 6.42694 9.85628C5.95152 10.2473 5.62353 10.5444 5.44296 10.7479C5.33003 10.7546 5.09279 10.6724 4.73126 10.5012C4.39232 10.3287 4.12712 10.1575 3.93566 9.98755C3.75617 9.82823 3.62919 9.69411 3.5547 9.58521C3.61427 9.25299 3.96269 8.7279 4.59999 8.00994C5.23728 7.29199 5.67612 6.85786 5.91652 6.70754C8.21075 7.93104 9.83584 8.00433 10.7918 6.9274C11.6203 5.99406 11.173 4.76264 9.44986 3.23313C8.8396 2.69144 8.34376 2.35827 7.96232 2.23363C7.99674 2.05024 8.1839 1.76709 8.52379 1.38419C8.86368 1.00128 9.20431 0.725995 9.54567 0.558339C9.99621 0.70153 10.5326 1.04929 11.1548 1.60161ZM0.342023 12.7345C0.327102 12.2934 0.468343 11.9053 0.765747 11.5703C1.06315 11.2352 1.42643 11.0549 1.85559 11.0294C2.30734 11.0025 2.70074 11.1378 3.03578 11.4352C3.37083 11.7326 3.54581 12.1018 3.56073 12.543C3.59824 12.9827 3.4683 13.3702 3.17089 13.7052C2.87349 14.0402 2.49891 14.2212 2.04716 14.2481C1.618 14.2736 1.2359 14.1377 0.900853 13.8403C0.565808 13.5429 0.379532 13.1743 0.342023 12.7345Z" fill="#ED1C24"/>
</svg>
