<svg width="54" height="53" viewBox="0 0 54 53" fill="none" xmlns="http://www.w3.org/2000/svg">
<path d="M0 26.5C0 11.8645 11.8645 0 26.5 0H27.5C42.1355 0 54 11.8645 54 26.5C54 41.1355 42.1355 53 27.5 53H26.5C11.8645 53 0 41.1355 0 26.5Z" fill="#FFD400"/>
<g clip-path="url(#clip0)">
<path d="M40.673 13.3269C37.8828 10.5367 34.1733 9 30.2271 9C26.2812 9 22.5714 10.5367 19.7815 13.3269C16.9911 16.1171 15.4546 19.8267 15.4546 23.7728C15.4546 26.7868 16.3521 29.6621 18.0189 32.0961L10.7981 39.2797C10.2836 39.7942 10 40.4786 10 41.2065C10 41.9345 10.2836 42.6189 10.7981 43.1334C11.3298 43.6651 12.0278 43.9305 12.7258 43.9305C13.423 43.9305 14.12 43.6653 14.65 43.1353L21.8667 35.9557C24.3084 37.6388 27.198 38.5453 30.2274 38.5453C34.1733 38.5453 37.8828 37.0089 40.6733 34.2184C43.4635 31.4282 44.9999 27.7187 44.9999 23.7728C44.9999 19.8269 43.4632 16.1171 40.673 13.3269ZM13.2022 41.6835C12.9392 41.9465 12.5111 41.9465 12.2481 41.6835C12.1207 41.5561 12.0505 41.3868 12.0505 41.2065C12.0505 41.0263 12.1207 40.857 12.2462 40.7315L19.3001 33.7137C19.456 33.8852 19.6165 34.0537 19.7812 34.2184C19.9356 34.3728 20.0929 34.5226 20.2526 34.6689L13.2022 41.6835ZM39.223 32.7685C34.2627 37.7288 26.1918 37.729 21.2312 32.7685C16.2709 27.8081 16.2709 19.7372 21.2312 14.7769C23.6342 12.3739 26.8289 11.0505 30.2271 11.0505C33.6253 11.0505 36.8203 12.3739 39.223 14.7769C44.1834 19.7372 44.1834 27.8081 39.223 32.7685Z" fill="#ED1C24"/>
<path d="M38.1873 15.8127C36.0613 13.6864 33.2342 12.5154 30.2272 12.5154C27.2205 12.5154 24.3934 13.6864 22.2671 15.8127C17.8779 20.2019 17.8779 27.3438 22.2671 31.733C24.3934 33.859 27.2205 35.03 30.2272 35.03C33.2342 35.03 36.0613 33.859 38.1873 31.733C40.3137 29.6066 41.4846 26.7796 41.4846 23.7728C41.4846 20.7658 40.3137 17.9388 38.1873 15.8127ZM36.7376 30.283C33.1477 33.8727 27.307 33.8727 23.7173 30.283C20.1274 26.6931 20.1274 20.8523 23.7173 17.2627C25.512 15.4677 27.8696 14.5702 30.2272 14.5702C32.5851 14.5702 34.9427 15.4677 36.7374 17.2627C38.4765 19.0016 39.4341 21.3135 39.4341 23.7728C39.4341 26.2319 38.4765 28.5441 36.7376 30.283Z" fill="#ED1C24"/>
<path d="M30.2273 19.3076C29.6612 19.3076 29.2021 19.7666 29.2021 20.3327V24.359C29.2021 24.9251 29.6612 25.3841 30.2273 25.3841C30.7936 25.3841 31.2527 24.9251 31.2527 24.359V20.3327C31.2527 19.7666 30.7936 19.3076 30.2273 19.3076Z" fill="#ED1C24"/>
<path d="M32.0308 34.8255C32.0238 34.7927 32.0158 34.7598 32.0062 34.7278C31.9966 34.6955 31.9851 34.6642 31.972 34.6333C31.9597 34.6026 31.9453 34.5718 31.9296 34.5425C31.9138 34.5131 31.8962 34.4843 31.8777 34.4562C31.8593 34.4284 31.8393 34.4009 31.8182 34.3756C31.7971 34.3489 31.7744 34.3243 31.7506 34.3005C31.7266 34.2765 31.702 34.2541 31.6753 34.2327C31.65 34.2116 31.6227 34.1919 31.5947 34.1732C31.5667 34.1547 31.5378 34.1371 31.5084 34.1214C31.4791 34.1056 31.4484 34.0912 31.4177 34.0789C31.3869 34.0661 31.3546 34.0543 31.3234 34.0447C31.2911 34.0351 31.2582 34.0271 31.2257 34.0202C31.1928 34.0132 31.1592 34.0087 31.1263 34.0052C31.0596 33.9983 30.9917 33.9983 30.9247 34.0052C30.8913 34.0087 30.8577 34.0132 30.8251 34.0202C30.7923 34.0271 30.7594 34.0354 30.7279 34.0447C30.6959 34.0543 30.6644 34.0661 30.6329 34.0789C30.6021 34.0912 30.572 34.1056 30.5426 34.1214C30.5132 34.1371 30.4839 34.1547 30.4566 34.1732C30.4286 34.1919 30.4013 34.2116 30.3752 34.2327C30.3493 34.2541 30.3239 34.2765 30.3007 34.3005C30.2769 34.3243 30.2542 34.3489 30.2331 34.3756C30.2118 34.4009 30.1915 34.4284 30.173 34.4562C30.1543 34.4843 30.1373 34.5131 30.1218 34.5425C30.106 34.5718 30.0916 34.6026 30.0785 34.6333C30.0662 34.6642 30.0547 34.6955 30.0451 34.7278C30.0347 34.7598 30.0267 34.7927 30.0206 34.8255C30.0136 34.8584 30.0088 34.8917 30.0053 34.9246C30.0021 34.958 30 34.9921 30 35.0258C30 35.0592 30.0021 35.0925 30.0053 35.1262C30.0088 35.1598 30.0136 35.1932 30.0206 35.2261C30.0267 35.2586 30.0347 35.2918 30.0451 35.323C30.0547 35.3553 30.0662 35.3865 30.0785 35.4175C30.0916 35.4488 30.106 35.4789 30.1218 35.5083C30.1373 35.5377 30.1543 35.5671 30.173 35.5943C30.1915 35.6223 30.2118 35.6498 30.2331 35.6757C30.2542 35.7016 30.2769 35.727 30.3007 35.7502C30.3239 35.7743 30.3493 35.7967 30.3752 35.8181C30.4013 35.8392 30.4286 35.8595 30.4566 35.8781C30.4839 35.8966 30.5132 35.9137 30.5426 35.9294C30.572 35.9449 30.603 35.9593 30.6337 35.9724C30.6644 35.9852 30.6959 35.9964 30.7279 36.0058C30.76 36.0162 30.7923 36.0245 30.8251 36.0304C30.8577 36.0373 30.8913 36.0421 30.9247 36.0456C30.9584 36.049 30.9917 36.0509 31.0254 36.0509C31.0588 36.0509 31.0929 36.049 31.1263 36.0456C31.1592 36.0421 31.1928 36.0373 31.2257 36.0304C31.2582 36.0242 31.2911 36.0162 31.3234 36.0058C31.3546 35.9962 31.3869 35.9852 31.4177 35.9724C31.4484 35.9593 31.4791 35.9452 31.5084 35.9294C31.5378 35.9137 31.5667 35.8966 31.5947 35.8781C31.6227 35.8595 31.65 35.8392 31.6753 35.8181C31.702 35.7967 31.7266 35.774 31.7506 35.7502C31.7744 35.727 31.7971 35.7016 31.8182 35.6757C31.8393 35.6498 31.8593 35.6223 31.8777 35.5943C31.8962 35.5671 31.9138 35.5377 31.9296 35.5083C31.9453 35.4789 31.9597 35.4488 31.972 35.4175C31.9851 35.3865 31.9966 35.3553 32.0062 35.323C32.0158 35.2918 32.0238 35.2589 32.0308 35.2261C32.0377 35.1932 32.0425 35.1596 32.0457 35.1262C32.0492 35.0928 32.0505 35.0592 32.0505 35.0258C32.0505 34.9921 32.0492 34.958 32.0457 34.9246C32.0425 34.8917 32.0377 34.8584 32.0308 34.8255Z" fill="#ED1C24"/>
</g>
<defs>
<clipPath id="clip0">
<rect width="35" height="35" fill="white" transform="translate(10 8)"/>
</clipPath>
</defs>
</svg>
