<svg width="54" height="53" viewBox="0 0 54 53" fill="none" xmlns="http://www.w3.org/2000/svg">
<path d="M0 26.5C0 11.8645 11.8645 0 26.5 0H27.5C42.1355 0 54 11.8645 54 26.5C54 41.1355 42.1355 53 27.5 53H26.5C11.8645 53 0 41.1355 0 26.5Z" fill="#FFD400"/>
<g clip-path="url(#clip0)">
<path d="M28.8044 15.0262C28.084 14.3058 26.9162 14.3058 26.1957 15.0262L14.0192 27.203C13.2991 27.9234 13.2991 29.0913 14.0192 29.812L26.1964 41.9888C26.9168 42.7089 28.0846 42.7089 28.805 41.9888L40.9821 29.812C41.7022 29.0913 41.7022 27.9234 40.9821 27.203L28.8044 15.0262ZM40.1113 28.939L27.9341 41.1162C27.6942 41.3561 27.3047 41.3561 27.0648 41.1162L14.8876 28.939C14.6477 28.6991 14.6477 28.3096 14.8876 28.0697L27.0648 15.8925C27.3047 15.6526 27.6942 15.6526 27.9341 15.8925L40.1113 28.0697C40.3512 28.3096 40.3512 28.6991 40.1113 28.939Z" fill="#ED1C24"/>
<path d="M28.8034 11.5446C28.0734 10.8479 26.9248 10.8479 26.1948 11.5446L10.5393 27.203C9.81892 27.9234 9.81892 29.0913 10.5393 29.812L26.1948 45.4641C26.9152 46.1845 28.083 46.1845 28.8034 45.4641L44.4588 29.8087C45.1792 29.0883 45.1792 27.9204 44.4588 27.2L28.8034 11.5446ZM43.5892 28.939L27.934 44.5945C27.6938 44.8347 27.3043 44.8347 27.0644 44.5945L11.409 28.939C11.1687 28.6991 11.1687 28.3096 11.409 28.0697L27.0644 12.4142C27.3043 12.174 27.6938 12.174 27.934 12.4142L43.5892 28.0697C43.8294 28.3096 43.8294 28.6991 43.5892 28.939Z" fill="#ED1C24"/>
<path d="M27.4016 19.454C26.753 19.454 26.1326 19.721 25.6866 20.1921C25.2407 20.6633 25.0083 21.2969 25.0437 21.9449L25.4944 30.1858C25.5482 31.1651 26.3587 31.9314 27.3394 31.9299H27.4704C28.4514 31.9314 29.2619 31.1651 29.3154 30.1858L29.7661 21.9449C29.8018 21.2957 29.5685 20.6609 29.1211 20.1894C28.6736 19.7179 28.0514 19.4519 27.4016 19.454ZM28.0818 30.1174C28.0637 30.4438 27.7935 30.699 27.4668 30.6987H27.3358C27.0088 30.699 26.7388 30.4438 26.7208 30.1174L26.2701 21.877C26.2482 21.459 26.4587 21.0633 26.8175 20.8476C27.1764 20.632 27.625 20.632 27.9836 20.8476C28.3424 21.0633 28.5532 21.459 28.5313 21.877L28.0818 30.1174Z" fill="#ED1C24"/>
<path d="M27.5003 33.1587C26.4811 33.1587 25.6553 33.9848 25.6553 35.0037C25.6553 36.0226 26.4811 36.8487 27.5003 36.8487C28.5192 36.8487 29.3453 36.0226 29.3453 35.0037C29.3453 33.9848 28.5192 33.1587 27.5003 33.1587ZM27.5003 35.6187C27.1603 35.6187 26.8853 35.3434 26.8853 35.0037C26.8853 34.6641 27.1603 34.3887 27.5003 34.3887C27.8399 34.3887 28.1153 34.6641 28.1153 35.0037C28.1153 35.3434 27.8399 35.6187 27.5003 35.6187Z" fill="#ED1C24"/>
</g>
<defs>
<clipPath id="clip0">
<rect width="35" height="35" fill="white" transform="translate(10 11)"/>
</clipPath>
</defs>
</svg>
