<svg width="45" height="45" viewBox="0 0 45 45" fill="none" xmlns="http://www.w3.org/2000/svg">
<path d="M37.4414 5.44922H36.123V3.95508C36.123 1.77425 34.3488 0 32.168 0H13.7109C13.3612 0 13.026 0.138955 12.7788 0.386191L3.98971 9.17525C3.74247 9.42249 3.60352 9.7577 3.60352 10.1074V35.7715C3.60352 37.9523 5.37776 39.7266 7.55859 39.7266H8.87695V41.0449C8.87695 43.2258 10.6512 45 12.832 45H37.4414C39.6222 45 41.3965 43.2258 41.3965 41.0449V9.4043C41.3965 7.22347 39.6222 5.44922 37.4414 5.44922ZM12.3926 4.50114V8.78906H8.10466L12.3926 4.50114ZM7.55859 37.0898C6.83165 37.0898 6.24023 36.4984 6.24023 35.7715V11.4258H13.7109C14.439 11.4258 15.0293 10.8355 15.0293 10.1074V2.63672H32.168C32.8949 2.63672 33.4863 3.22813 33.4863 3.95508V35.7715C33.4863 36.4984 32.8949 37.0898 32.168 37.0898H7.55859ZM38.7598 41.0449C38.7598 41.7719 38.1684 42.3633 37.4414 42.3633H12.832C12.1051 42.3633 11.5137 41.7719 11.5137 41.0449V39.7266H32.168C34.3488 39.7266 36.123 37.9523 36.123 35.7715V8.08594H37.4414C38.1684 8.08594 38.7598 8.67735 38.7598 9.4043V41.0449Z" fill="#ED1C24"/>
<path d="M28.3458 10.833C28.8145 10.183 29.0918 9.38619 29.0918 8.52539C29.0918 6.34456 27.3175 4.57031 25.1367 4.57031C22.9559 4.57031 21.1816 6.34456 21.1816 8.52539C21.1816 9.38619 21.4589 10.183 21.9277 10.833C20.4175 11.8622 19.4238 13.5954 19.4238 15.5566V17.3145C19.4238 18.0425 20.0141 18.6328 20.7422 18.6328H29.5312C30.2593 18.6328 30.8496 18.0425 30.8496 17.3145V15.5566C30.8496 13.5954 29.8559 11.8622 28.3458 10.833ZM25.1367 7.20703C25.8637 7.20703 26.4551 7.79845 26.4551 8.52539C26.4551 9.25233 25.8637 9.84375 25.1367 9.84375C24.4098 9.84375 23.8184 9.25233 23.8184 8.52539C23.8184 7.79845 24.4098 7.20703 25.1367 7.20703ZM28.2129 15.9961H22.0605V15.5566C22.0605 13.8604 23.4405 12.4805 25.1367 12.4805C26.8329 12.4805 28.2129 13.8604 28.2129 15.5566V15.9961Z" fill="#ED1C24"/>
<path d="M10.1953 18.6328H16.3477C17.0757 18.6328 17.666 18.0425 17.666 17.3145C17.666 16.5864 17.0757 15.9961 16.3477 15.9961H10.1953C9.46723 15.9961 8.87695 16.5864 8.87695 17.3145C8.87695 18.0425 9.46723 18.6328 10.1953 18.6328Z" fill="#ED1C24"/>
<path d="M29.5312 21.2695H10.1953C9.46723 21.2695 8.87695 21.8598 8.87695 22.5879C8.87695 23.316 9.46723 23.9062 10.1953 23.9062H29.5312C30.2593 23.9062 30.8496 23.316 30.8496 22.5879C30.8496 21.8598 30.2593 21.2695 29.5312 21.2695Z" fill="#ED1C24"/>
<path d="M29.5312 26.543H10.1953C9.46723 26.543 8.87695 27.1332 8.87695 27.8613C8.87695 28.5894 9.46723 29.1797 10.1953 29.1797H29.5312C30.2593 29.1797 30.8496 28.5894 30.8496 27.8613C30.8496 27.1332 30.2593 26.543 29.5312 26.543Z" fill="#ED1C24"/>
<path d="M29.5312 31.8164H10.1953C9.46723 31.8164 8.87695 32.4067 8.87695 33.1348C8.87695 33.8629 9.46723 34.4531 10.1953 34.4531H29.5312C30.2593 34.4531 30.8496 33.8629 30.8496 33.1348C30.8496 32.4067 30.2593 31.8164 29.5312 31.8164Z" fill="#ED1C24"/>
</svg>
