<svg width="106" height="125" viewBox="0 0 106 125" fill="none" xmlns="http://www.w3.org/2000/svg">
<path d="M13.4265 94.5588C13.4265 103.116 5.68755 110.309 -4.19119 110.309C-14.0699 110.309 -21.8088 103.116 -21.8088 94.5588C-21.8088 86.0017 -14.0699 78.8088 -4.19119 78.8088C5.68755 78.8088 13.4265 86.0017 13.4265 94.5588Z" stroke="#ED1C24" stroke-width="3"/>
<path d="M33.5 90.5C33.5 108.811 19.5377 123.5 2.5 123.5C-14.5377 123.5 -28.5 108.811 -28.5 90.5C-28.5 72.189 -14.5377 57.5 2.5 57.5C19.5377 57.5 33.5 72.189 33.5 90.5Z" stroke="#ED1C24" stroke-width="3"/>
<path d="M96.2961 20.0909V22.3636M96.2961 22.3636L23 36M96.2961 22.3636V16.904L105 14.6364M23 36L105 0.999999V14.6364M23 36L105 14.6364" stroke="white"/>
</svg>
