<svg width="35" height="35" viewBox="0 0 35 35" fill="none" xmlns="http://www.w3.org/2000/svg">
<path d="M7.10938 31.7188H8.20312V32.8125H7.10938V31.7188Z" fill="#ED1C24"/>
<path d="M24.6094 22.4219C25.2126 22.4219 25.7031 22.9124 25.7031 23.5156H26.7969C26.7969 22.4995 26.0974 21.6502 25.1562 21.4058V20.2344H24.0625V21.4058C23.1213 21.6502 22.4219 22.4995 22.4219 23.5156C22.4219 24.722 23.403 25.7031 24.6094 25.7031C25.2126 25.7031 25.7031 26.1937 25.7031 26.7969C25.7031 27.4001 25.2126 27.8906 24.6094 27.8906C24.0062 27.8906 23.5156 27.4001 23.5156 26.7969H22.4219C22.4219 27.813 23.1213 28.6623 24.0625 28.9067V30.0781H25.1562V28.9067C26.0974 28.6623 26.7969 27.813 26.7969 26.7969C26.7969 25.5905 25.8158 24.6094 24.6094 24.6094C24.0062 24.6094 23.5156 24.1188 23.5156 23.5156C23.5156 22.9124 24.0062 22.4219 24.6094 22.4219Z" fill="#ED1C24"/>
<path d="M12.5781 15.3125H2.73438C2.43195 15.3125 2.1875 15.5575 2.1875 15.8594V30.625C2.1875 30.9269 2.43195 31.1719 2.73438 31.1719H12.5781C12.8805 31.1719 13.125 30.9269 13.125 30.625V15.8594C13.125 15.5575 12.8805 15.3125 12.5781 15.3125ZM12.0312 30.0781H3.28125V16.4062H12.0312V30.0781Z" fill="#ED1C24"/>
<path d="M32.8125 0.546875H10.9375C10.033 0.546875 9.29688 1.28297 9.29688 2.1875V13.6719H2.1875C1.28297 13.6719 0.546875 14.408 0.546875 15.3125V32.8125C0.546875 33.717 1.28297 34.4531 2.1875 34.4531H13.125C14.0295 34.4531 14.7656 33.717 14.7656 32.8125V16.9531H32.8125C33.717 16.9531 34.4531 16.217 34.4531 15.3125V2.1875C34.4531 1.28297 33.717 0.546875 32.8125 0.546875ZM10.9375 1.64062H32.8125C33.1144 1.64062 33.3594 1.88617 33.3594 2.1875V2.73438H10.3906V2.1875C10.3906 1.88617 10.6356 1.64062 10.9375 1.64062ZM33.3594 3.82812V6.01562H10.3906V3.82812H33.3594ZM13.6719 32.8125C13.6719 33.1138 13.4269 33.3594 13.125 33.3594H2.1875C1.88563 33.3594 1.64062 33.1138 1.64062 32.8125V15.3125C1.64062 15.0112 1.88563 14.7656 2.1875 14.7656H13.125C13.4269 14.7656 13.6719 15.0112 13.6719 15.3125V32.8125ZM32.8125 15.8594H14.7656V15.3125C14.7656 14.408 14.0295 13.6719 13.125 13.6719H10.3906V7.10938H33.3594V15.3125C33.3594 15.6138 33.1144 15.8594 32.8125 15.8594Z" fill="#ED1C24"/>
<path d="M17.5 8.20312H12.0312C11.7288 8.20312 11.4844 8.44813 11.4844 8.75V12.0312C11.4844 12.3331 11.7288 12.5781 12.0312 12.5781H17.5C17.8024 12.5781 18.0469 12.3331 18.0469 12.0312V8.75C18.0469 8.44813 17.8024 8.20312 17.5 8.20312ZM13.6719 9.29688V9.84375H12.5781V9.29688H13.6719ZM12.5781 10.9375H14.2188C14.5212 10.9375 14.7656 10.6925 14.7656 10.3906V9.29688H15.3125V11.4844H12.5781V10.9375ZM16.9531 11.4844H16.4062V9.29688H16.9531V11.4844Z" fill="#ED1C24"/>
<path d="M32.2656 7.65625H25.7031C25.4007 7.65625 25.1562 7.90125 25.1562 8.20312V14.7656C25.1562 15.0675 25.4007 15.3125 25.7031 15.3125H32.2656C32.568 15.3125 32.8125 15.0675 32.8125 14.7656V8.20312C32.8125 7.90125 32.568 7.65625 32.2656 7.65625ZM26.25 8.75H28.4375V10.9375H26.25V8.75ZM26.25 14.2188V12.0312H28.9844C29.2868 12.0312 29.5312 11.7863 29.5312 11.4844V8.75H30.0781V9.84375H31.1719V8.75H31.7188V12.0312H31.1719V10.9375H30.0781V12.5781C30.0781 12.88 30.3226 13.125 30.625 13.125H31.7188V14.2188H26.25Z" fill="#ED1C24"/>
<path d="M26.7969 9.29688H27.8906V10.3906H26.7969V9.29688Z" fill="#ED1C24"/>
<path d="M26.7969 12.5781H29.5312V13.6719H26.7969V12.5781Z" fill="#ED1C24"/>
<path d="M27.3438 24.6094H28.4375V25.7031H27.3438V24.6094Z" fill="#ED1C24"/>
<path d="M29.5312 24.6094H30.625V25.7031H29.5312V24.6094Z" fill="#ED1C24"/>
<path d="M29.5312 22.4219H30.625V23.5156H29.5312V22.4219Z" fill="#ED1C24"/>
<path d="M29.5312 20.2344H30.625V21.3281H29.5312V20.2344Z" fill="#ED1C24"/>
<path d="M29.5312 18.0469H30.625V19.1406H29.5312V18.0469Z" fill="#ED1C24"/>
<path d="M20.2344 24.6094H21.3281V25.7031H20.2344V24.6094Z" fill="#ED1C24"/>
<path d="M18.0469 24.6094H19.1406V25.7031H18.0469V24.6094Z" fill="#ED1C24"/>
<path d="M15.8594 24.6094H16.9531V25.7031H15.8594V24.6094Z" fill="#ED1C24"/>
</svg>
