<svg width="35" height="35" viewBox="0 0 35 35" fill="none" xmlns="http://www.w3.org/2000/svg">
<path d="M33.9156 21.9762L23.5933 5.43324C22.2718 3.31516 19.9938 2.05078 17.5 2.05078C15.0062 2.05078 12.7282 3.31516 11.4067 5.43324L1.0844 21.9762C0.374908 23.1132 0 24.4257 0 25.7715C0 29.7294 3.21983 32.9492 7.17773 32.9492H27.8223C31.7802 32.9492 35 29.7294 35 25.7715C35 24.4257 34.6251 23.1132 33.9156 21.9762ZM27.8223 30.8984H7.17773C4.3507 30.8984 2.05078 28.5985 2.05078 25.7715C2.05078 24.8099 2.31834 23.8729 2.82436 23.0619L13.1466 6.51897C14.0911 5.00519 15.7184 4.10156 17.5 4.10156C19.2816 4.10156 20.9089 5.00519 21.8534 6.51897L32.1756 23.0619C32.6817 23.8729 32.9492 24.8099 32.9492 25.7715C32.9492 28.5985 30.6493 30.8984 27.8223 30.8984Z" fill="#ED1C24"/>
<path d="M20.1137 7.60471C19.5462 6.69521 18.5692 6.15234 17.5 6.15234C16.4308 6.15234 15.4538 6.69521 14.8863 7.60445L4.56432 24.1474C4.25724 24.6393 4.10156 25.1859 4.10156 25.7715C4.10156 27.4677 5.48157 28.8477 7.17773 28.8477H27.8223C29.5184 28.8477 30.8984 27.4677 30.8984 25.7715C30.8984 25.1859 30.7428 24.6395 30.4359 24.1474L20.1137 7.60471ZM27.8223 26.7969H7.17773C6.61243 26.7969 6.15234 26.3368 6.15234 25.7715C6.15234 25.5728 6.20201 25.3968 6.30402 25.2329L16.6263 8.69019C16.8167 8.38524 17.1432 8.20312 17.5 8.20312C17.8568 8.20312 18.1836 8.38524 18.3737 8.69045L28.696 25.2332C28.798 25.3968 28.8477 25.5728 28.8477 25.7715C28.8477 26.3368 28.3876 26.7969 27.8223 26.7969Z" fill="#ED1C24"/>
<path d="M16.4746 13.3301H18.5254V20.5762H16.4746V13.3301Z" fill="#ED1C24"/>
<path d="M16.4746 22.627H18.5254V24.6777H16.4746V22.627Z" fill="#ED1C24"/>
</svg>
