<svg width="35" height="35" viewBox="0 0 35 35" fill="none" xmlns="http://www.w3.org/2000/svg">
<g clip-path="url(#clip0)">
<path d="M30.673 5.32693C27.8828 2.53675 24.1733 1 20.2271 1C16.2812 1 12.5714 2.53675 9.78151 5.32693C6.99107 8.11711 5.45459 11.8267 5.45459 15.7728C5.45459 18.7868 6.35207 21.6621 8.01886 24.0961L0.798148 31.2797C0.283584 31.7942 0 32.4786 0 33.2065C0 33.9345 0.283584 34.6189 0.798148 35.1334C1.3298 35.6651 2.02781 35.9305 2.72582 35.9305C3.42304 35.9305 4.11998 35.6653 4.65003 35.1353L11.8667 27.9557C14.3084 29.6388 17.198 30.5453 20.2274 30.5453C24.1733 30.5453 27.8828 29.0089 30.6733 26.2184C33.4635 23.4282 34.9999 19.7187 34.9999 15.7728C34.9999 11.8269 33.4632 8.11711 30.673 5.32693ZM3.2022 33.6835C2.93918 33.9465 2.51113 33.9465 2.24811 33.6835C2.12074 33.5561 2.05051 33.3868 2.05051 33.2065C2.05051 33.0263 2.12074 32.857 2.24624 32.7315L9.30006 25.7137C9.45601 25.8852 9.61649 26.0537 9.78125 26.2184C9.93559 26.3728 10.0929 26.5226 10.2526 26.6689L3.2022 33.6835ZM29.223 24.7685C24.2627 29.7288 16.1918 29.729 11.2312 24.7685C6.27089 19.8081 6.27089 11.7372 11.2312 6.77689C13.6342 4.3739 16.8289 3.05051 20.2271 3.05051C23.6253 3.05051 26.8203 4.3739 29.223 6.77689C34.1834 11.7372 34.1834 19.8081 29.223 24.7685Z" fill="#ED1C24"/>
<path d="M28.1873 7.81271C26.0613 5.68636 23.2342 4.51544 20.2272 4.51544C17.2205 4.51544 14.3934 5.68636 12.2671 7.81271C7.87793 12.2019 7.87793 19.3438 12.2671 23.733C14.3934 25.859 17.2205 27.03 20.2272 27.03C23.2342 27.03 26.0613 25.859 28.1873 23.733C30.3137 21.6066 31.4846 18.7796 31.4846 15.7728C31.4846 12.7658 30.3137 9.93879 28.1873 7.81271ZM26.7376 22.283C23.1477 25.8727 17.307 25.8727 13.7173 22.283C10.1274 18.6931 10.1274 12.8523 13.7173 9.26267C15.512 7.46771 17.8696 6.57022 20.2272 6.57022C22.5851 6.57022 24.9427 7.46771 26.7374 9.26267C28.4765 11.0016 29.4341 13.3135 29.4341 15.7728C29.4341 18.2319 28.4765 20.5441 26.7376 22.283Z" fill="#ED1C24"/>
<path d="M20.2273 11.3076C19.6612 11.3076 19.2021 11.7666 19.2021 12.3327V16.359C19.2021 16.9251 19.6612 17.3841 20.2273 17.3841C20.7936 17.3841 21.2527 16.9251 21.2527 16.359V12.3327C21.2527 11.7666 20.7936 11.3076 20.2273 11.3076Z" fill="#ED1C24"/>
<path d="M22.0308 26.8255C22.0238 26.7927 22.0158 26.7598 22.0062 26.7278C21.9966 26.6955 21.9851 26.6642 21.972 26.6333C21.9597 26.6026 21.9453 26.5718 21.9296 26.5425C21.9138 26.5131 21.8962 26.4843 21.8777 26.4562C21.8593 26.4284 21.8393 26.4009 21.8182 26.3756C21.7971 26.3489 21.7744 26.3243 21.7506 26.3005C21.7266 26.2765 21.702 26.2541 21.6753 26.2327C21.65 26.2116 21.6227 26.1919 21.5947 26.1732C21.5667 26.1547 21.5378 26.1371 21.5084 26.1214C21.4791 26.1056 21.4484 26.0912 21.4177 26.0789C21.3869 26.0661 21.3546 26.0543 21.3234 26.0447C21.2911 26.0351 21.2582 26.0271 21.2257 26.0202C21.1928 26.0132 21.1592 26.0087 21.1263 26.0052C21.0596 25.9983 20.9917 25.9983 20.9247 26.0052C20.8913 26.0087 20.8577 26.0132 20.8251 26.0202C20.7923 26.0271 20.7594 26.0354 20.7279 26.0447C20.6959 26.0543 20.6644 26.0661 20.6329 26.0789C20.6021 26.0912 20.572 26.1056 20.5426 26.1214C20.5132 26.1371 20.4839 26.1547 20.4566 26.1732C20.4286 26.1919 20.4013 26.2116 20.3752 26.2327C20.3493 26.2541 20.3239 26.2765 20.3007 26.3005C20.2769 26.3243 20.2542 26.3489 20.2331 26.3756C20.2118 26.4009 20.1915 26.4284 20.173 26.4562C20.1543 26.4843 20.1373 26.5131 20.1218 26.5425C20.106 26.5718 20.0916 26.6026 20.0785 26.6333C20.0662 26.6642 20.0547 26.6955 20.0451 26.7278C20.0347 26.7598 20.0267 26.7927 20.0206 26.8255C20.0136 26.8584 20.0088 26.8917 20.0053 26.9246C20.0021 26.958 20 26.9921 20 27.0258C20 27.0592 20.0021 27.0925 20.0053 27.1262C20.0088 27.1598 20.0136 27.1932 20.0206 27.2261C20.0267 27.2586 20.0347 27.2918 20.0451 27.323C20.0547 27.3553 20.0662 27.3865 20.0785 27.4175C20.0916 27.4488 20.106 27.4789 20.1218 27.5083C20.1373 27.5377 20.1543 27.5671 20.173 27.5943C20.1915 27.6223 20.2118 27.6498 20.2331 27.6757C20.2542 27.7016 20.2769 27.727 20.3007 27.7502C20.3239 27.7743 20.3493 27.7967 20.3752 27.8181C20.4013 27.8392 20.4286 27.8595 20.4566 27.8781C20.4839 27.8966 20.5132 27.9137 20.5426 27.9294C20.572 27.9449 20.603 27.9593 20.6337 27.9724C20.6644 27.9852 20.6959 27.9964 20.7279 28.0058C20.76 28.0162 20.7923 28.0245 20.8251 28.0304C20.8577 28.0373 20.8913 28.0421 20.9247 28.0456C20.9584 28.049 20.9917 28.0509 21.0254 28.0509C21.0588 28.0509 21.0929 28.049 21.1263 28.0456C21.1592 28.0421 21.1928 28.0373 21.2257 28.0304C21.2582 28.0242 21.2911 28.0162 21.3234 28.0058C21.3546 27.9962 21.3869 27.9852 21.4177 27.9724C21.4484 27.9593 21.4791 27.9452 21.5084 27.9294C21.5378 27.9137 21.5667 27.8966 21.5947 27.8781C21.6227 27.8595 21.65 27.8392 21.6753 27.8181C21.702 27.7967 21.7266 27.774 21.7506 27.7502C21.7744 27.727 21.7971 27.7016 21.8182 27.6757C21.8393 27.6498 21.8593 27.6223 21.8777 27.5943C21.8962 27.5671 21.9138 27.5377 21.9296 27.5083C21.9453 27.4789 21.9597 27.4488 21.972 27.4175C21.9851 27.3865 21.9966 27.3553 22.0062 27.323C22.0158 27.2918 22.0238 27.2589 22.0308 27.2261C22.0377 27.1932 22.0425 27.1596 22.0457 27.1262C22.0492 27.0928 22.0505 27.0592 22.0505 27.0258C22.0505 26.9921 22.0492 26.958 22.0457 26.9246C22.0425 26.8917 22.0377 26.8584 22.0308 26.8255Z" fill="#ED1C24"/>
</g>
<defs>
<clipPath id="clip0">
<rect width="35" height="35" fill="white"/>
</clipPath>
</defs>
</svg>
