<svg width="25" height="25" viewBox="0 0 25 25" fill="none" xmlns="http://www.w3.org/2000/svg">
<g clip-path="url(#clip0_528:132)">
<path d="M24.2421 10.3433H21.9467C21.7294 9.44509 21.388 8.59538 20.9407 7.81388L22.7423 6.01227C23.0382 5.71628 23.0382 5.23643 22.7423 4.94044L20.3811 2.57925C20.0851 2.28326 19.6053 2.28326 19.3093 2.57925L17.5566 4.33192C16.7736 3.85348 15.9175 3.48313 15.0091 3.24047V0.766375C15.0091 0.347812 14.6698 0.00849152 14.2513 0.00849152H10.912C10.4935 0.00849152 10.1541 0.347812 10.1541 0.766375V3.19519C9.216 3.42677 8.33169 3.79439 7.52296 4.2761L5.96167 2.71481C5.66568 2.41882 5.18583 2.41882 4.88984 2.71481L2.52865 5.07599C2.23266 5.37198 2.23266 5.85183 2.52865 6.14782L4.10039 7.71956C3.62605 8.52706 3.26453 9.4086 3.03841 10.3433H0.757883C0.33932 10.3433 0 10.6826 0 11.1012V14.4404C0 14.859 0.33932 15.1983 0.757883 15.1983H3.10658C3.34938 16.0905 3.71549 16.9318 4.18627 17.7024L2.49484 19.3938C2.19885 19.6898 2.19885 20.1696 2.49484 20.4656L4.85603 22.8268C5.15202 23.1228 5.63187 23.1228 5.92786 22.8268L7.66822 21.0864C8.40849 21.5101 9.20971 21.8393 10.0556 22.0576V24.2337C10.0556 24.6522 10.3949 24.9916 10.8135 24.9916H14.1527C14.5712 24.9916 14.9106 24.6522 14.9106 24.2337V22.0624C15.7999 21.8349 16.6397 21.4845 17.4118 21.0309L19.2246 22.8437C19.5206 23.1397 20.0005 23.1397 20.2965 22.8437L22.6576 20.4826C22.9536 20.1866 22.9536 19.7067 22.6576 19.4107L20.8552 17.6083C21.2988 16.8634 21.6456 16.0544 21.8786 15.1983H24.2422C24.6607 15.1983 25 14.859 25 14.4404V11.1012C25 10.6826 24.6607 10.3433 24.2421 10.3433ZM5.8613 10.308C5.63099 9.94495 5.73863 9.46393 6.10171 9.23366C6.44167 9.01804 6.88477 9.0987 7.12894 9.40762C8.21761 7.5418 10.2428 6.33183 12.4756 6.33183C15.1721 6.33183 17.5382 8.05532 18.3633 10.6205C18.4949 11.0298 18.2699 11.4682 17.8605 11.5999C17.4511 11.7316 17.0128 11.5064 16.8811 11.0971C16.2638 9.17814 14.4934 7.88878 12.4756 7.88878C10.9055 7.88878 9.4732 8.68848 8.63027 9.94309C8.98413 9.93616 9.30915 10.1723 9.39957 10.5302C9.50487 10.9471 9.25235 11.3704 8.8355 11.4756L7.45665 11.824C7.1531 11.9017 6.78831 11.7798 6.60859 11.4862L5.8613 10.308ZM18.8982 15.7663C18.5583 15.982 18.1152 15.9013 17.871 15.5924C16.7823 17.4582 14.7571 18.6682 12.5244 18.6682C9.82789 18.6682 7.46182 16.9447 6.6367 14.3796C6.50505 13.9703 6.73009 13.5318 7.13939 13.4001C7.54863 13.2683 7.9872 13.4936 8.11885 13.9028C8.73615 15.8218 10.5066 17.1112 12.5244 17.1112C14.0943 17.1112 15.5265 16.3117 16.3694 15.0573C16.3645 15.0574 16.3595 15.0577 16.3546 15.0577C16.0065 15.0577 15.6895 14.8226 15.6004 14.4698C15.4951 14.0529 15.7476 13.6296 16.1645 13.5243L17.5433 13.1761C17.8457 13.1001 18.2224 13.2205 18.3988 13.5255L19.1387 14.692C19.369 15.055 19.2613 15.536 18.8982 15.7663Z" fill="black"/>
</g>
<defs>
<clipPath id="clip0_528:132">
<rect width="25" height="25" fill="white"/>
</clipPath>
</defs>
</svg>
