<svg width="54" height="53" viewBox="0 0 54 53" fill="none" xmlns="http://www.w3.org/2000/svg">
<path d="M0 26.5C0 11.8645 11.8645 0 26.5 0H27.5C42.1355 0 54 11.8645 54 26.5C54 41.1355 42.1355 53 27.5 53H26.5C11.8645 53 0 41.1355 0 26.5Z" fill="#FFD400"/>
<path d="M35.7969 17.5781V16.4844C36.7014 16.4844 37.4375 15.7483 37.4375 14.8438C37.4375 13.9392 36.7014 13.2031 35.7969 13.2031H34.7031C34.4013 13.2031 34.1562 12.9581 34.1562 12.6562C34.1562 12.3544 34.4013 12.1094 34.7031 12.1094H36.3438V12.6562H37.4375V11.0156H35.7969V9.92188H34.7031V11.0156C33.7986 11.0156 33.0625 11.7517 33.0625 12.6562C33.0625 13.5608 33.7986 14.2969 34.7031 14.2969H35.7969C36.0987 14.2969 36.3438 14.5419 36.3438 14.8438C36.3438 15.1456 36.0987 15.3906 35.7969 15.3906H34.1562V14.8438H33.0625V16.4844H34.7031V17.5781H35.7969Z" fill="#ED1C24"/>
<path d="M41.2656 13.75C41.2656 10.4332 38.5668 7.73438 35.25 7.73438C31.9332 7.73438 29.2344 10.4332 29.2344 13.75C29.2344 17.0668 31.9332 19.7656 35.25 19.7656C38.5668 19.7656 41.2656 17.0668 41.2656 13.75ZM30.3281 13.75C30.3281 11.0359 32.5359 8.82812 35.25 8.82812C37.9641 8.82812 40.1719 11.0359 40.1719 13.75C40.1719 16.4641 37.9641 18.6719 35.25 18.6719C32.5359 18.6719 30.3281 16.4641 30.3281 13.75Z" fill="#ED1C24"/>
<path d="M43.4531 13.75C43.4531 9.2268 39.7732 5.54688 35.25 5.54688C30.7268 5.54688 27.0469 9.2268 27.0469 13.75C27.0469 17.2325 29.2316 20.2075 32.3002 21.3953L31.1955 22.5H26.7986L22.9705 26.875H16.4173L9.69234 34.1599L10.4957 34.902L16.8958 27.9688H23.4676L27.2957 23.5938H31.6488L33.4858 21.7568C33.9867 21.8673 34.5046 21.9285 35.0351 21.9422L32.2892 24.6875H27.3203L24.0391 29.0625H17.5017L9.54688 38.1538V39.4531H41.2656V19.3084C42.6186 17.845 43.4531 15.8954 43.4531 13.75ZM28.1406 13.75C28.1406 9.83 31.33 6.64062 35.25 6.64062C39.17 6.64062 42.3594 9.83 42.3594 13.75C42.3594 17.67 39.17 20.8594 35.25 20.8594C31.33 20.8594 28.1406 17.67 28.1406 13.75ZM36.8906 21.788V38.3594H34.7031V23.8202L36.7074 21.8159C36.7681 21.8049 36.8305 21.8 36.8906 21.788ZM32.742 25.7812L33.6094 24.9139V38.3594H31.4219V25.7812H32.742ZM17.2031 38.3594H15.0156V33.5649L17.2031 31.0652V38.3594ZM18.2969 30.1562H20.4844V38.3594H18.2969V30.1562ZM21.5781 30.1562H23.7656V38.3594H21.5781V30.1562ZM24.8594 29.7915L27.0469 26.875V38.3594H24.8594V29.7915ZM28.1406 25.7812H30.3281V38.3594H28.1406V25.7812ZM13.9219 34.8151V38.3594H10.8205L13.9219 34.8151ZM37.9844 38.3594V21.4746C38.7768 21.193 39.5123 20.7943 40.1719 20.2972V38.3594H37.9844Z" fill="#ED1C24"/>
<path d="M12.8281 25.7812H13.9219V23.5938H15.0156V17.0312H13.9219V14.8438H12.8281V17.0312H11.7344V23.5938H12.8281V25.7812ZM12.8281 18.125H13.9219V22.5H12.8281V18.125Z" fill="#ED1C24"/>
<path d="M17.2031 23.0469H18.2969V20.8594H19.3906V15.3906H18.2969V13.2031H17.2031V15.3906H16.1094V20.8594H17.2031V23.0469ZM17.2031 16.4844H18.2969V19.7656H17.2031V16.4844Z" fill="#ED1C24"/>
<path d="M21.5781 19.2188H22.6719V17.0312H23.7656V12.6562H22.6719V10.4688H21.5781V12.6562H20.4844V17.0312H21.5781V19.2188ZM21.5781 13.75H22.6719V15.9375H21.5781V13.75Z" fill="#ED1C24"/>
</svg>
