<svg width="35" height="35" viewBox="0 0 35 35" fill="none" xmlns="http://www.w3.org/2000/svg">
<path d="M28.9515 22.5112C27.0937 20.6533 24.8636 19.3037 22.4299 18.5292C25.4102 16.8157 27.4215 13.599 27.4215 9.92147C27.4216 4.45081 22.9709 0 17.5002 0C12.0294 0 7.57869 4.45081 7.57869 9.92147C7.57869 13.5991 9.59003 16.8157 12.5703 18.5292C10.1366 19.3036 7.90654 20.6533 6.04867 22.5112C2.98993 25.57 1.30542 29.6367 1.30542 33.9624C1.30542 34.5354 1.76999 35 2.34298 35H32.6571C33.2301 35 33.6946 34.5354 33.6946 33.9624C33.6948 29.6367 32.0103 25.5699 28.9515 22.5112ZM9.65381 9.92147C9.65381 5.59501 13.1737 2.07512 17.5002 2.07512C21.8266 2.07512 25.3465 5.59501 25.3465 9.92147C25.3465 14.2479 21.8266 17.7678 17.5002 17.7678C13.1737 17.7678 9.65381 14.2479 9.65381 9.92147ZM3.41834 32.9249C3.95106 25.6217 10.0634 19.8429 17.5002 19.8429C24.9369 19.8429 31.0492 25.6217 31.582 32.9249H3.41834Z" fill="#ED1C24"/>
<path d="M17.5001 13.3047C16.9574 13.3047 16.4375 13.7819 16.4625 14.3422C16.4877 14.9043 16.9184 15.3798 17.5001 15.3798C18.0428 15.3798 18.5627 14.9026 18.5377 14.3422C18.5124 13.7801 18.0818 13.3047 17.5001 13.3047Z" fill="#ED1C24"/>
<path d="M17.4999 4.46318C15.7239 4.46318 14.2791 5.90809 14.2791 7.68414C14.2791 8.25713 14.7436 8.7217 15.3166 8.7217C15.8896 8.7217 16.3542 8.25713 16.3542 7.68414C16.3542 7.05236 16.8682 6.5383 17.4999 6.5383C18.1317 6.5383 18.6457 7.05229 18.6457 7.68414C18.6457 8.31598 18.1317 8.82998 17.4999 8.82998C16.927 8.82998 16.4624 9.29455 16.4624 9.86754V11.4372C16.4624 12.0102 16.927 12.4748 17.4999 12.4748C18.0729 12.4748 18.5375 12.0102 18.5375 11.4372V10.7336C19.8061 10.3009 20.7208 9.09726 20.7208 7.68414C20.7209 5.90809 19.276 4.46318 17.4999 4.46318Z" fill="#ED1C24"/>
</svg>
