<svg width="25" height="25" viewBox="0 0 25 25" fill="none" xmlns="http://www.w3.org/2000/svg">
<path d="M19.2708 21.9708V18.0365C19.2708 16.6854 18.6875 15.399 17.6698 14.5084L15.374 12.5L17.6698 10.4917C18.6875 9.60103 19.2708 8.31455 19.2708 6.96353V3.02915C19.876 2.81353 20.3125 2.24062 20.3125 1.5625C20.3125 0.701025 19.6115 0 18.75 0H6.25C5.38853 0 4.6875 0.701025 4.6875 1.5625C4.6875 2.24062 5.12397 2.81353 5.72915 3.02915V6.96353C5.72915 8.31455 6.3125 9.60103 7.33018 10.4917L9.62603 12.5L7.33018 14.5084C6.31245 15.399 5.72915 16.6854 5.72915 18.0365V21.9708C5.12397 22.1865 4.6875 22.7594 4.6875 23.4375C4.6875 24.299 5.38853 25 6.25 25H18.75C19.6115 25 20.3125 24.299 20.3125 23.4375C20.3125 22.7594 19.876 22.1865 19.2708 21.9708ZM18.2292 21.875H6.77085V18.0365C6.77085 16.9854 7.225 15.9854 8.01563 15.2927L10.7594 12.8917C10.8729 12.7927 10.9375 12.65 10.9375 12.5C10.9375 12.35 10.8729 12.2073 10.7594 12.1084L8.01563 9.70737C7.225 9.01465 6.77085 8.01465 6.77085 6.96362V3.125H18.2292V6.96353C18.2292 8.01455 17.775 9.01455 16.9844 9.70728L14.2407 12.1083C14.1271 12.2073 14.0625 12.35 14.0625 12.5C14.0625 12.65 14.1271 12.7927 14.2406 12.8917L16.9844 15.2927C17.776 15.9854 18.2292 16.9854 18.2292 18.0364V21.875Z" fill="black"/>
<path d="M17.0737 19.9875L12.907 14.7792C12.7091 14.5323 12.2914 14.5323 12.0935 14.7792L7.92685 19.9875C7.80185 20.1437 7.77787 20.3583 7.86435 20.5385C7.95082 20.7187 8.1331 20.8333 8.3331 20.8333H16.6664C16.8664 20.8333 17.0487 20.7187 17.1362 20.5385C17.2226 20.3583 17.1987 20.1437 17.0737 19.9875Z" fill="black"/>
<path d="M15.0647 8.65522C14.9845 8.46044 14.7939 8.33334 14.5835 8.33334H10.4168C10.2064 8.33334 10.0158 8.46044 9.93556 8.65522C9.85431 8.84999 9.89908 9.07294 10.0481 9.22294L12.1314 11.3063C12.2335 11.4073 12.3668 11.4584 12.5002 11.4584C12.6335 11.4584 12.7668 11.4074 12.8689 11.3063L14.9523 9.22294C15.1011 9.07397 15.146 8.84999 15.0647 8.65522Z" fill="black"/>
</svg>
