<svg width="45" height="45" viewBox="0 0 45 45" fill="none" xmlns="http://www.w3.org/2000/svg">
<path d="M34.6875 39.5475V32.4657C34.6875 30.0338 33.6375 27.7182 31.8057 26.115L27.6732 22.5L31.8057 18.885C33.6376 17.2818 34.6875 14.9662 34.6875 12.5343V5.45247C35.7768 5.06435 36.5625 4.03312 36.5625 2.8125C36.5625 1.26185 35.3007 0 33.75 0H11.25C9.69935 0 8.4375 1.26185 8.4375 2.8125C8.4375 4.03312 9.22315 5.06435 10.3125 5.45247V12.5343C10.3125 14.9662 11.3625 17.2818 13.1943 18.885L17.3268 22.5L13.1943 26.115C11.3624 27.7182 10.3125 30.0338 10.3125 32.4657V39.5475C9.22315 39.9357 8.4375 40.9669 8.4375 42.1875C8.4375 43.7382 9.69935 45 11.25 45H33.75C35.3007 45 36.5625 43.7382 36.5625 42.1875C36.5625 40.9669 35.7768 39.9357 34.6875 39.5475ZM32.8125 39.375H12.1875V32.4657C12.1875 30.5738 13.005 28.7738 14.4281 27.5269L19.3669 23.2051C19.5712 23.0269 19.6875 22.7701 19.6875 22.5001C19.6875 22.2301 19.5712 21.9732 19.3669 21.7951L14.4281 17.4733C13.005 16.2264 12.1875 14.4264 12.1875 12.5345V5.625H32.8126V12.5343C32.8126 14.4262 31.9951 16.2262 30.572 17.4731L25.6332 21.7949C25.4288 21.9731 25.3125 22.23 25.3125 22.5C25.3125 22.77 25.4288 23.0269 25.6331 23.205L30.5719 27.5268C31.9968 28.7737 32.8125 30.5737 32.8125 32.4656V39.375Z" fill="#ED1C24"/>
<path d="M30.7331 35.9775L23.2331 26.6025C22.8769 26.1581 22.125 26.1581 21.7688 26.6025L14.2688 35.9775C14.0438 36.2588 14.0006 36.645 14.1563 36.9694C14.3119 37.2938 14.64 37.4999 15 37.4999H30.0001C30.3601 37.4999 30.6881 37.2937 30.8456 36.9694C31.0011 36.645 30.9581 36.2588 30.7331 35.9775Z" fill="#ED1C24"/>
<path d="M27.1163 15.5794C26.9719 15.2288 26.6288 15 26.2501 15H18.7501C18.3714 15 18.0283 15.2288 17.8839 15.5794C17.7376 15.93 17.8182 16.3313 18.0864 16.6013L21.8364 20.3513C22.0202 20.5332 22.2601 20.6251 22.5001 20.6251C22.7402 20.6251 22.9801 20.5333 23.1639 20.3513L26.9139 16.6013C27.1819 16.3332 27.2626 15.93 27.1163 15.5794Z" fill="#ED1C24"/>
</svg>
