<svg width="72" height="62" viewBox="0 0 72 62" fill="none" xmlns="http://www.w3.org/2000/svg">
<rect width="72" height="62" rx="31" fill="#FFD400"/>
<g clip-path="url(#clip0)">
<path d="M57.6358 25.6179H53.504C53.1129 24.0012 52.4983 22.4717 51.6933 21.065L54.9361 17.8221C55.4688 17.2893 55.4688 16.4256 54.9361 15.8928L50.686 11.6427C50.1532 11.1099 49.2895 11.1099 48.7567 11.6427L45.6019 14.7975C44.1924 13.9363 42.6515 13.2696 41.0164 12.8329V8.37948C41.0164 7.62607 40.4057 7.01529 39.6523 7.01529H33.6416C32.8882 7.01529 32.2774 7.62607 32.2774 8.37948V12.7514C30.5888 13.1682 28.997 13.8299 27.5413 14.697L24.731 11.8867C24.1982 11.3539 23.3345 11.3539 22.8017 11.8867L18.5516 16.1368C18.0188 16.6696 18.0188 17.5333 18.5516 18.0661L21.3807 20.8952C20.5269 22.3487 19.8762 23.9355 19.4691 25.618H15.3642C14.6108 25.6179 14 26.2287 14 26.9822V32.9928C14 33.7462 14.6108 34.357 15.3642 34.357H19.5918C20.0289 35.9629 20.6879 37.4772 21.5353 38.8643L18.4907 41.9088C17.9579 42.4416 17.9579 43.3054 18.4907 43.8381L22.7408 48.0883C23.2736 48.6211 24.1374 48.6211 24.6701 48.0883L27.8028 44.9556C29.1353 45.7182 30.5775 46.3108 32.1 46.7037V50.6206C32.1 51.374 32.7108 51.9848 33.4642 51.9848H39.4748C40.2282 51.9848 40.839 51.374 40.839 50.6206V46.7123C42.4397 46.3028 43.9515 45.672 45.3412 44.8557L48.6043 48.1188C49.1371 48.6515 50.0008 48.6515 50.5336 48.1188L54.7838 43.8686C55.3165 43.3358 55.3165 42.4721 54.7838 41.9393L51.5394 38.6949C52.3378 37.3542 52.9621 35.898 53.3815 34.357H57.6359C58.3893 34.357 59.0001 33.7462 59.0001 32.9928V26.9822C59 26.2287 58.3892 25.6179 57.6358 25.6179ZM24.5503 25.5545C24.1358 24.9009 24.3295 24.0351 24.9831 23.6206C25.595 23.2325 26.3926 23.3777 26.8321 23.9337C28.7917 20.5752 32.4371 18.3973 36.456 18.3973C41.3098 18.3973 45.5687 21.4996 47.0538 26.1168C47.2908 26.8536 46.8857 27.6428 46.1489 27.8798C45.4119 28.1169 44.623 27.7116 44.386 26.9749C43.2749 23.5207 40.0882 21.1998 36.456 21.1998C33.6299 21.1998 31.0518 22.6393 29.5345 24.8976C30.1714 24.8851 30.7565 25.3102 30.9192 25.9544C31.1088 26.7048 30.6542 27.4667 29.9039 27.6562L27.422 28.2832C26.8756 28.4231 26.219 28.2037 25.8955 27.6751L24.5503 25.5545ZM48.0168 35.3794C47.405 35.7675 46.6073 35.6224 46.1678 35.0663C44.2082 38.4247 40.5628 40.6027 36.5439 40.6027C31.6902 40.6027 27.4313 37.5005 25.9461 32.8832C25.7091 32.1465 26.1142 31.3572 26.8509 31.1202C27.5875 30.883 28.377 31.2884 28.6139 32.0251C29.7251 35.4793 32.9118 37.8001 36.5439 37.8001C39.3697 37.8001 41.9476 36.361 43.465 34.1031C43.4561 34.1033 43.4472 34.1039 43.4383 34.1039C42.8117 34.1039 42.2412 33.6808 42.0807 33.0456C41.8911 32.2952 42.3457 31.5333 43.096 31.3438L45.5779 30.7169C46.1222 30.5801 46.8003 30.7968 47.1178 31.3459L48.4496 33.4455C48.8641 34.0991 48.6704 34.9648 48.0168 35.3794Z" fill="#ED1C24"/>
</g>
<defs>
<clipPath id="clip0">
<rect width="45" height="45" fill="white" transform="translate(14 7)"/>
</clipPath>
</defs>
</svg>
