<svg width="35" height="35" viewBox="0 0 35 35" fill="none" xmlns="http://www.w3.org/2000/svg">
<path d="M26.7969 12.5781V11.4844C27.7014 11.4844 28.4375 10.7483 28.4375 9.84375C28.4375 8.93922 27.7014 8.20312 26.7969 8.20312H25.7031C25.4013 8.20312 25.1562 7.95812 25.1562 7.65625C25.1562 7.35438 25.4013 7.10938 25.7031 7.10938H27.3438V7.65625H28.4375V6.01562H26.7969V4.92188H25.7031V6.01562C24.7986 6.01562 24.0625 6.75172 24.0625 7.65625C24.0625 8.56078 24.7986 9.29688 25.7031 9.29688H26.7969C27.0987 9.29688 27.3438 9.54187 27.3438 9.84375C27.3438 10.1456 27.0987 10.3906 26.7969 10.3906H25.1562V9.84375H24.0625V11.4844H25.7031V12.5781H26.7969Z" fill="#ED1C24"/>
<path d="M32.2656 8.75C32.2656 5.4332 29.5668 2.73438 26.25 2.73438C22.9332 2.73438 20.2344 5.4332 20.2344 8.75C20.2344 12.0668 22.9332 14.7656 26.25 14.7656C29.5668 14.7656 32.2656 12.0668 32.2656 8.75ZM21.3281 8.75C21.3281 6.03586 23.5359 3.82812 26.25 3.82812C28.9641 3.82812 31.1719 6.03586 31.1719 8.75C31.1719 11.4641 28.9641 13.6719 26.25 13.6719C23.5359 13.6719 21.3281 11.4641 21.3281 8.75Z" fill="#ED1C24"/>
<path d="M34.4531 8.75C34.4531 4.2268 30.7732 0.546875 26.25 0.546875C21.7268 0.546875 18.0469 4.2268 18.0469 8.75C18.0469 12.2325 20.2316 15.2075 23.3002 16.3953L22.1955 17.5H17.7986L13.9705 21.875H7.41727L0.692344 29.1599L1.4957 29.902L7.89578 22.9688H14.4676L18.2957 18.5938H22.6488L24.4858 16.7568C24.9867 16.8673 25.5046 16.9285 26.0351 16.9422L23.2892 19.6875H18.3203L15.0391 24.0625H8.50172L0.546875 33.1538V34.4531H32.2656V14.3084C33.6186 12.845 34.4531 10.8954 34.4531 8.75ZM19.1406 8.75C19.1406 4.83 22.33 1.64062 26.25 1.64062C30.17 1.64062 33.3594 4.83 33.3594 8.75C33.3594 12.67 30.17 15.8594 26.25 15.8594C22.33 15.8594 19.1406 12.67 19.1406 8.75ZM27.8906 16.788V33.3594H25.7031V18.8202L27.7074 16.8159C27.7681 16.8049 27.8305 16.8 27.8906 16.788ZM23.742 20.7812L24.6094 19.9139V33.3594H22.4219V20.7812H23.742ZM8.20312 33.3594H6.01562V28.5649L8.20312 26.0652V33.3594ZM9.29688 25.1562H11.4844V33.3594H9.29688V25.1562ZM12.5781 25.1562H14.7656V33.3594H12.5781V25.1562ZM15.8594 24.7915L18.0469 21.875V33.3594H15.8594V24.7915ZM19.1406 20.7812H21.3281V33.3594H19.1406V20.7812ZM4.92188 29.8151V33.3594H1.82055L4.92188 29.8151ZM28.9844 33.3594V16.4746C29.7768 16.193 30.5123 15.7943 31.1719 15.2972V33.3594H28.9844Z" fill="#ED1C24"/>
<path d="M3.82812 20.7812H4.92188V18.5938H6.01562V12.0312H4.92188V9.84375H3.82812V12.0312H2.73438V18.5938H3.82812V20.7812ZM3.82812 13.125H4.92188V17.5H3.82812V13.125Z" fill="#ED1C24"/>
<path d="M8.20312 18.0469H9.29688V15.8594H10.3906V10.3906H9.29688V8.20312H8.20312V10.3906H7.10938V15.8594H8.20312V18.0469ZM8.20312 11.4844H9.29688V14.7656H8.20312V11.4844Z" fill="#ED1C24"/>
<path d="M12.5781 14.2188H13.6719V12.0312H14.7656V7.65625H13.6719V5.46875H12.5781V7.65625H11.4844V12.0312H12.5781V14.2188ZM12.5781 8.75H13.6719V10.9375H12.5781V8.75Z" fill="#ED1C24"/>
</svg>
