<svg width="26" height="40" viewBox="0 0 26 40" fill="none" xmlns="http://www.w3.org/2000/svg">
<path d="M4.05961 3.8164C8.90016 1.24747 12.7857 0.249529 15.7163 0.822581C18.6282 1.3603 20.7217 2.83047 21.9967 5.23308C23.6094 8.27168 23.6147 11.4388 22.0126 14.7343C21.4171 16.0013 20.5721 17.3102 19.4775 18.6609L18.8264 19.4819C18.6354 19.7192 18.7818 20.5924 19.2658 22.1016C19.7663 23.5568 20.176 24.5847 20.4948 25.1853C20.4119 25.4558 20.0121 25.9397 19.2953 26.637C18.5952 27.2803 17.9625 27.7519 17.3971 28.052C16.8672 28.3332 16.4421 28.5135 16.1219 28.5929C15.3957 28.1632 14.4701 26.8883 13.345 24.7684C12.2199 22.6484 11.5863 21.2412 11.4442 20.5468C16.3142 16.2415 17.9054 12.4988 16.2178 9.31892C14.7552 6.56298 11.4799 6.53511 6.39206 9.2353C4.5901 10.1916 3.37655 11.0621 2.75142 11.8467C2.35191 11.6059 1.85214 10.9201 1.25209 9.7895C0.652051 8.65885 0.304762 7.6205 0.210227 6.67442C0.939189 5.74414 2.22232 4.79147 4.05961 3.8164ZM20.6927 38.8693C19.6463 38.5189 18.8606 37.8491 18.3356 36.8598C17.8106 35.8705 17.7056 34.862 18.0206 33.8344C18.3522 32.7527 19.0127 31.9494 20.002 31.4244C20.9913 30.8993 22.0092 30.812 23.0555 31.1624C24.1184 31.4587 24.9124 32.1015 25.4374 33.0908C25.9625 34.0801 26.0592 35.1156 25.7276 36.1972C25.4125 37.2248 24.7603 38.0012 23.771 38.5262C22.7817 39.0512 21.7556 39.1656 20.6927 38.8693Z" fill="white"/>
</svg>
