<svg width="45" height="45" viewBox="0 0 45 45" fill="none" xmlns="http://www.w3.org/2000/svg">
<path d="M30.4102 5.27335C25.3216 5.27335 21.1816 9.41317 21.1816 14.5017C21.1816 19.5902 25.3216 23.73 30.4102 23.73C35.4988 23.73 39.6387 19.5902 39.6387 14.5017C39.6387 9.41317 35.4988 5.27335 30.4102 5.27335ZM32.124 17.1339C32.124 17.862 31.5337 18.4523 30.8057 18.4523C30.0776 18.4523 29.4873 17.862 29.4873 17.1339V13.6274C29.4785 13.6245 28.5437 13.6468 28.2366 12.7257C28.0063 12.0349 28.3797 11.2883 29.0704 11.058L30.3888 10.6186C31.2424 10.3344 32.1241 10.9706 32.1241 11.8693V17.1339H32.124Z" fill="#ED1C24"/>
<path d="M30.4146 4.04728C31.1426 4.04728 31.7329 3.457 31.7329 2.72892V1.31836C31.7329 0.590273 31.1426 0 30.4146 0C29.6865 0 29.0962 0.590273 29.0962 1.31836V2.72892C29.0962 3.457 29.6865 4.04728 30.4146 4.04728Z" fill="#ED1C24"/>
<path d="M21.0307 7.15457C21.5455 7.66935 22.3803 7.66943 22.8951 7.15457C23.41 6.63971 23.41 5.80501 22.8951 5.29023L21.8977 4.29276C21.3829 3.7779 20.5481 3.7779 20.0332 4.29276C19.5184 4.80763 19.5184 5.64232 20.0332 6.1571L21.0307 7.15457Z" fill="#ED1C24"/>
<path d="M39.7809 22.2002C39.2661 21.6853 38.4313 21.6853 37.9164 22.2002C37.4016 22.7151 37.4016 23.5498 37.9164 24.0645L38.9139 25.062C39.4287 25.5768 40.2635 25.5769 40.7783 25.062C41.2932 24.5471 41.2932 23.7124 40.7783 23.1977L39.7809 22.2002Z" fill="#ED1C24"/>
<path d="M43.6816 13.3679H42.271C41.5429 13.3679 40.9526 13.9582 40.9526 14.6862C40.9526 15.4143 41.5429 16.0046 42.271 16.0046H43.6816C44.4097 16.0046 45 15.4143 45 14.6862C45 13.9582 44.4097 13.3679 43.6816 13.3679Z" fill="#ED1C24"/>
<path d="M39.7931 7.16696L40.7905 6.16949C41.3054 5.65463 41.3054 4.81993 40.7905 4.30515C40.2758 3.79029 39.441 3.79029 38.9261 4.30515L37.9286 5.30262C37.4138 5.81749 37.4138 6.65218 37.9286 7.16696C38.4434 7.68174 39.2783 7.68182 39.7931 7.16696Z" fill="#ED1C24"/>
<path d="M23.0706 23.8178H6.23584C5.50775 23.8178 4.91748 23.2275 4.91748 22.4995C4.91748 21.7714 5.50775 21.1811 6.23584 21.1811H20.6089C19.0434 18.8913 18.3328 16.1428 18.6001 13.359H6.5918C2.95708 13.359 0 16.316 0 19.9506V30.673C0 33.8857 2.31038 36.569 5.35693 37.1486V43.6805C5.35693 44.8501 6.76705 45.4346 7.597 44.6231L15.1229 37.2646H25.1323C28.767 37.2646 31.7241 34.3076 31.7241 30.673V26.2933C28.6033 26.6388 25.5175 25.7496 23.0706 23.8178ZM23.814 29.0911H6.23584C5.50775 29.0911 4.91748 28.5008 4.91748 27.7727C4.91748 27.0446 5.50775 26.4544 6.23584 26.4544H23.814C24.5421 26.4544 25.1323 27.0446 25.1323 27.7727C25.1323 28.5009 24.5421 29.0911 23.814 29.0911Z" fill="#ED1C24"/>
</svg>
