<svg width="45" height="45" viewBox="0 0 45 45" fill="none" xmlns="http://www.w3.org/2000/svg">
<g clip-path="url(#clip0)">
<path d="M22.8207 21.6766C19.8427 21.6766 17.264 20.6086 15.1571 18.5012C13.0501 16.3943 11.982 13.8163 11.982 10.838C11.982 7.86069 13.0501 5.28234 15.1574 3.17469C17.2647 1.06807 19.8431 0 22.8207 0C25.799 0 28.3771 1.06807 30.484 3.17504C32.591 5.282 33.6594 7.86034 33.6594 10.838C33.6594 13.8163 32.591 16.3946 30.4837 18.5016C28.3764 20.6082 25.798 21.6766 22.8207 21.6766Z" fill="#ED1C24"/>
<path d="M3.85586 34.6027C3.91663 33.7258 4.03954 32.7693 4.22047 31.7593C4.40311 30.7417 4.63829 29.7797 4.91982 28.9004C5.21061 27.9917 5.60612 27.0942 6.09501 26.2342C6.60244 25.3416 7.19845 24.5643 7.86724 23.9247C8.56659 23.2555 9.42284 22.7176 10.413 22.3251C11.3997 21.9348 12.4932 21.737 13.6629 21.737C14.1222 21.737 14.5665 21.9255 15.4245 22.4841C15.9525 22.8285 16.5701 23.2267 17.2595 23.6672C17.849 24.0428 18.6476 24.3947 19.6339 24.7133C20.5963 25.0247 21.5734 25.1826 22.5378 25.1826C23.5022 25.1826 24.4789 25.0247 25.4423 24.7133C26.4276 24.395 27.2262 24.0431 27.815 23.6675C28.4978 23.2312 29.1158 22.8329 29.6518 22.4838C30.5087 21.9252 30.9533 21.7367 31.4127 21.7367C32.5827 21.7367 33.6758 21.9348 34.6622 22.3255C35.6517 22.7172 36.5083 23.2552 37.2083 23.925C37.8767 24.565 38.4731 25.3419 38.9798 26.2342C39.4684 27.0942 39.8639 27.9913 40.155 28.9008C40.4362 29.78 40.6714 30.7417 40.854 31.7593C41.035 32.768 41.1579 33.7248 41.2186 34.6037C41.2784 35.4647 41.3086 36.3584 41.3086 37.261C41.3086 39.61 40.5619 41.5117 39.0894 42.9141C37.635 44.2981 35.7107 45.0002 33.3706 45.0002H11.7028C9.36275 45.0002 7.43912 44.2984 5.98446 42.9141C4.5116 41.5127 3.76488 39.6107 3.76488 37.2607C3.76522 36.3539 3.79578 35.4596 3.85586 34.6027Z" fill="#ED1C24"/>
</g>
<defs>
<clipPath id="clip0">
<rect width="45" height="45" fill="white" transform="matrix(-1 0 0 1 45 0)"/>
</clipPath>
</defs>
</svg>
