<svg width="72" height="62" viewBox="0 0 72 62" fill="none" xmlns="http://www.w3.org/2000/svg">
<rect width="72" height="62" rx="31" fill="#FFD400"/>
<g clip-path="url(#clip0)">
<rect width="45" height="45" transform="translate(16 8)" fill="#ED1C24" fill-opacity="0.01"/>
<path d="M53.5584 32.3668C53.4504 32.3123 53.3421 32.2851 53.233 32.2851C52.9982 32.2851 52.7913 32.3752 52.611 32.5558L50.8791 34.2875C50.7172 34.4501 50.6359 34.6482 50.6359 34.883V41.7555C50.6359 42.9464 50.2129 43.9651 49.3644 44.8134C48.5167 45.6612 47.4973 46.0851 46.3066 46.0851H23.7931C22.6023 46.0851 21.583 45.6612 20.7352 44.8134C19.8873 43.9652 19.4635 42.9465 19.4635 41.7555V19.2426C19.4635 18.052 19.8873 17.0328 20.7352 16.1847C21.583 15.3368 22.6023 14.913 23.7931 14.913H46.3068C46.7037 14.913 47.1095 14.9671 47.5244 15.0755C47.6327 15.1113 47.7138 15.1296 47.7673 15.1296C48.0021 15.1296 48.2097 15.0396 48.39 14.8593L49.7159 13.5333C49.9322 13.3172 50.0137 13.0554 49.9591 12.749C49.905 12.4603 49.7424 12.2527 49.4718 12.1266C48.4983 11.6762 47.4425 11.45 46.306 11.45H23.7931C21.6464 11.45 19.8108 12.2122 18.2864 13.7365C16.7622 15.2611 16 17.0965 16 19.2433V41.7568C16 43.9032 16.7622 45.7387 18.2865 47.2631C19.8109 48.7878 21.6465 49.55 23.7932 49.55H46.3066C48.453 49.55 50.2888 48.7878 51.8132 47.2631C53.3377 45.7387 54.1005 43.9033 54.1005 41.7568V33.1513C54.1003 32.7728 53.919 32.5114 53.5584 32.3668Z" fill="#ED1C24"/>
<path d="M60.3508 16.8347L57.3739 13.8579C56.941 13.425 56.4265 13.2085 55.831 13.2085C55.2363 13.2085 54.7215 13.425 54.2889 13.8579L36.7812 31.3655L29.665 24.2488C29.2319 23.8157 28.7177 23.5995 28.1226 23.5995C27.5274 23.5995 27.0133 23.8157 26.5802 24.2488L23.6037 27.2252C23.1708 27.6582 22.9541 28.1724 22.9541 28.7679C22.9541 29.3631 23.1708 29.8772 23.6037 30.3103L35.2392 41.9457C35.6722 42.379 36.1865 42.5951 36.7816 42.5951C37.3767 42.5951 37.8908 42.3791 38.324 41.9457L60.3505 19.9194C60.7831 19.4865 61.0001 18.9722 61.0001 18.377C61.0001 17.7818 60.7837 17.2675 60.3508 16.8347Z" fill="#ED1C24"/>
</g>
<defs>
<clipPath id="clip0">
<rect width="45" height="45" fill="white" transform="translate(16 8)"/>
</clipPath>
</defs>
</svg>
