<svg width="45" height="45" viewBox="0 0 45 45" fill="none" xmlns="http://www.w3.org/2000/svg">
<path d="M43.6358 18.6179H39.504C39.1129 17.0012 38.4983 15.4717 37.6933 14.065L40.9361 10.8221C41.4688 10.2893 41.4688 9.42558 40.9361 8.8928L36.686 4.64266C36.1532 4.10988 35.2895 4.10988 34.7567 4.64266L31.6019 7.79746C30.1924 6.93628 28.6515 6.26964 27.0164 5.83286V1.37948C27.0164 0.626066 26.4057 0.0152893 25.6523 0.0152893H19.6416C18.8882 0.0152893 18.2774 0.626066 18.2774 1.37948V5.75135C16.5888 6.1682 14.997 6.82991 13.5413 7.69698L10.731 4.88666C10.1982 4.35387 9.33449 4.35387 8.80171 4.88666L4.55157 9.13679C4.01879 9.66958 4.01879 10.5333 4.55157 11.0661L7.3807 13.8952C6.52689 15.3487 5.87615 16.9355 5.46914 18.618H1.36419C0.610776 18.6179 0 19.2287 0 19.9822V25.9928C0 26.7462 0.610776 27.357 1.36419 27.357H5.59184C6.02889 28.9629 6.68789 30.4772 7.53528 31.8643L4.49071 34.9088C3.95793 35.4416 3.95793 36.3054 4.49071 36.8381L8.74085 41.0883C9.27363 41.6211 10.1374 41.6211 10.6701 41.0883L13.8028 37.9556C15.1353 38.7182 16.5775 39.3108 18.1 39.7037V43.6206C18.1 44.374 18.7108 44.9848 19.4642 44.9848H25.4748C26.2282 44.9848 26.839 44.374 26.839 43.6206V39.7123C28.4397 39.3028 29.9515 38.672 31.3412 37.8557L34.6043 41.1188C35.1371 41.6515 36.0008 41.6515 36.5336 41.1188L40.7838 36.8686C41.3165 36.3358 41.3165 35.4721 40.7838 34.9393L37.5394 31.6949C38.3378 30.3542 38.9621 28.898 39.3815 27.357H43.6359C44.3893 27.357 45.0001 26.7462 45.0001 25.9928V19.9822C45 19.2287 44.3892 18.6179 43.6358 18.6179ZM10.5503 18.5545C10.1358 17.9009 10.3295 17.0351 10.9831 16.6206C11.595 16.2325 12.3926 16.3777 12.8321 16.9337C14.7917 13.5752 18.4371 11.3973 22.456 11.3973C27.3098 11.3973 31.5687 14.4996 33.0538 19.1168C33.2908 19.8536 32.8857 20.6428 32.1489 20.8798C31.4119 21.1169 30.623 20.7116 30.386 19.9749C29.2749 16.5207 26.0882 14.1998 22.456 14.1998C19.6299 14.1998 17.0518 15.6393 15.5345 17.8976C16.1714 17.8851 16.7565 18.3102 16.9192 18.9544C17.1088 19.7048 16.6542 20.4667 15.9039 20.6562L13.422 21.2832C12.8756 21.4231 12.219 21.2037 11.8955 20.6751L10.5503 18.5545ZM34.0168 28.3794C33.405 28.7675 32.6073 28.6224 32.1678 28.0663C30.2082 31.4247 26.5628 33.6027 22.5439 33.6027C17.6902 33.6027 13.4313 30.5005 11.9461 25.8832C11.7091 25.1465 12.1142 24.3572 12.8509 24.1202C13.5875 23.883 14.377 24.2884 14.6139 25.0251C15.7251 28.4793 18.9118 30.8001 22.5439 30.8001C25.3697 30.8001 27.9476 29.361 29.465 27.1031C29.4561 27.1033 29.4472 27.1039 29.4383 27.1039C28.8117 27.1039 28.2412 26.6808 28.0807 26.0456C27.8911 25.2952 28.3457 24.5333 29.096 24.3438L31.5779 23.7169C32.1222 23.5801 32.8003 23.7968 33.1178 24.3459L34.4496 26.4455C34.8641 27.0991 34.6704 27.9648 34.0168 28.3794Z" fill="#ED1C24"/>
</svg>
