<svg width="35" height="35" viewBox="0 0 35 35" fill="none" xmlns="http://www.w3.org/2000/svg">
<g clip-path="url(#clip0)">
<path d="M18.8044 4.0262C18.084 3.3058 16.9162 3.3058 16.1957 4.0262L4.0192 16.203C3.2991 16.9234 3.2991 18.0913 4.0192 18.812L16.1964 30.9888C16.9168 31.7089 18.0846 31.7089 18.805 30.9888L30.9821 18.812C31.7022 18.0913 31.7022 16.9234 30.9821 16.203L18.8044 4.0262ZM30.1113 17.939L17.9341 30.1162C17.6942 30.3561 17.3047 30.3561 17.0648 30.1162L4.88765 17.939C4.64771 17.6991 4.64771 17.3096 4.88765 17.0697L17.0648 4.89254C17.3047 4.65261 17.6942 4.65261 17.9341 4.89254L30.1113 17.0697C30.3512 17.3096 30.3512 17.6991 30.1113 17.939Z" fill="#ED1C24"/>
<path d="M18.8034 0.544599C18.0734 -0.152079 16.9248 -0.152079 16.1948 0.544599L0.539324 16.203C-0.181077 16.9234 -0.181077 18.0913 0.539324 18.812L16.1948 34.4641C16.9152 35.1845 18.083 35.1845 18.8034 34.4641L34.4588 18.8087C35.1792 18.0883 35.1792 16.9204 34.4588 16.2L18.8034 0.544599ZM33.5892 17.939L17.934 33.5945C17.6938 33.8347 17.3043 33.8347 17.0644 33.5945L1.40897 17.939C1.16874 17.6991 1.16874 17.3096 1.40897 17.0697L17.0644 1.41425C17.3043 1.17401 17.6938 1.17401 17.934 1.41425L33.5892 17.0697C33.8294 17.3096 33.8294 17.6991 33.5892 17.939Z" fill="#ED1C24"/>
<path d="M17.4017 8.45399C16.7531 8.45399 16.1327 8.72095 15.6867 9.19211C15.2408 9.66327 15.0084 10.2969 15.0438 10.9449L15.4946 19.1858C15.5483 20.1651 16.3588 20.9314 17.3396 20.9299H17.4705C18.4515 20.9314 19.262 20.1651 19.3155 19.1858L19.7662 10.9449C19.802 10.2957 19.5686 9.66087 19.1212 9.18941C18.6738 8.71795 18.0515 8.45189 17.4017 8.45399ZM18.0819 19.1174C18.0639 19.4438 17.7936 19.699 17.4669 19.6987H17.3359C17.0089 19.699 16.739 19.4438 16.7209 19.1174L16.2702 10.877C16.2483 10.459 16.4588 10.0633 16.8176 9.84765C17.1765 9.63204 17.6251 9.63204 17.9837 9.84765C18.3425 10.0633 18.5533 10.459 18.5314 10.877L18.0819 19.1174Z" fill="#ED1C24"/>
<path d="M17.5003 22.1587C16.4811 22.1587 15.6553 22.9848 15.6553 24.0037C15.6553 25.0226 16.4811 25.8487 17.5003 25.8487C18.5192 25.8487 19.3453 25.0226 19.3453 24.0037C19.3453 22.9848 18.5192 22.1587 17.5003 22.1587ZM17.5003 24.6187C17.1603 24.6187 16.8853 24.3434 16.8853 24.0037C16.8853 23.6641 17.1603 23.3887 17.5003 23.3887C17.8399 23.3887 18.1153 23.6641 18.1153 24.0037C18.1153 24.3434 17.8399 24.6187 17.5003 24.6187Z" fill="#ED1C24"/>
</g>
<defs>
<clipPath id="clip0">
<rect width="35" height="35" fill="white"/>
</clipPath>
</defs>
</svg>
